<?xml version="1.0" encoding="UTF-8"?>
<svg version="1.1" xmlns="http://www.w3.org/2000/svg" width="960" height="634">
<path d="M0,0 L896,0 L896,1 L899,1 L899,2 L902,2 L902,3 L904,3 L904,4 L906,4 L906,5 L907,5 L907,6 L908,6 L908,7 L910,7 L910,8 L911,8 L911,9 L912,9 L912,10 L913,10 L913,12 L914,12 L914,13 L915,13 L915,14 L916,14 L916,16 L917,16 L917,18 L918,18 L918,20 L919,20 L919,24 L920,24 L920,598 L919,598 L919,602 L918,602 L918,604 L917,604 L917,606 L916,606 L916,608 L915,608 L915,609 L914,609 L914,610 L913,610 L913,612 L912,612 L912,613 L911,613 L911,614 L910,614 L910,615 L908,615 L908,616 L907,616 L907,617 L906,617 L906,618 L904,618 L904,619 L902,619 L902,620 L899,620 L899,621 L896,621 L896,622 L0,622 L0,621 L-3,621 L-3,620 L-6,620 L-6,619 L-8,619 L-8,618 L-10,618 L-10,617 L-11,617 L-11,616 L-12,616 L-12,615 L-14,615 L-14,614 L-15,614 L-15,613 L-16,613 L-16,612 L-17,612 L-17,610 L-18,610 L-18,609 L-19,609 L-19,608 L-20,608 L-20,606 L-21,606 L-21,604 L-22,604 L-22,602 L-23,602 L-23,598 L-24,598 L-24,24 L-23,24 L-23,20 L-22,20 L-22,18 L-21,18 L-21,16 L-20,16 L-20,14 L-19,14 L-19,13 L-18,13 L-18,12 L-17,12 L-17,10 L-16,10 L-16,9 L-15,9 L-15,8 L-14,8 L-14,7 L-12,7 L-12,6 L-11,6 L-11,5 L-10,5 L-10,4 L-8,4 L-8,3 L-6,3 L-6,2 L-3,2 L-3,1 L0,1 Z " fill="#175AD2" transform="translate(32,6)"/>
<path d="M0,0 L896,0 L896,1 L899,1 L899,2 L902,2 L902,3 L904,3 L904,4 L906,4 L906,5 L907,5 L907,6 L908,6 L908,7 L910,7 L910,8 L911,8 L911,9 L912,9 L912,10 L913,10 L913,12 L914,12 L914,13 L915,13 L915,14 L916,14 L916,16 L917,16 L917,18 L918,18 L918,20 L919,20 L919,24 L920,24 L920,598 L919,598 L919,602 L918,602 L918,604 L917,604 L917,606 L916,606 L916,608 L915,608 L915,609 L914,609 L914,610 L913,610 L913,612 L912,612 L912,613 L911,613 L911,614 L910,614 L910,615 L908,615 L908,616 L907,616 L907,617 L906,617 L906,618 L904,618 L904,619 L902,619 L902,620 L899,620 L899,621 L896,621 L896,622 L0,622 L0,621 L-3,621 L-3,620 L-6,620 L-6,619 L-8,619 L-8,618 L-10,618 L-10,617 L-11,617 L-11,616 L-12,616 L-12,615 L-14,615 L-14,614 L-15,614 L-15,613 L-16,613 L-16,612 L-17,612 L-17,610 L-18,610 L-18,609 L-19,609 L-19,608 L-20,608 L-20,606 L-21,606 L-21,604 L-22,604 L-22,602 L-23,602 L-23,598 L-24,598 L-24,24 L-23,24 L-23,20 L-22,20 L-22,18 L-21,18 L-21,16 L-20,16 L-20,14 L-19,14 L-19,13 L-18,13 L-18,12 L-17,12 L-17,10 L-16,10 L-16,9 L-15,9 L-15,8 L-14,8 L-14,7 L-12,7 L-12,6 L-11,6 L-11,5 L-10,5 L-10,4 L-8,4 L-8,3 L-6,3 L-6,2 L-3,2 L-3,1 L0,1 Z M109,4 L109,132 L-20,132 L-20,207 L109,207 L109,348 L-20,348 L-20,418 L916,418 L916,57 L322,57 L322,132 L181,132 L181,4 Z " fill="#1659D1" transform="translate(32,6)"/>
<path d="M0,0 L72,0 L72,128 L213,128 L213,203 L72,203 L72,344 L807,344 L807,414 L-129,414 L-129,344 L0,344 L0,203 L-129,203 L-129,128 L0,128 Z " fill="#FFFFFF" transform="translate(141,10)"/>
<path d="M0,0 L936,0 L936,75 L0,75 Z " fill="#FFFFFF" transform="translate(12,494)"/>
<path d="M0,0 L936,0 L936,70 L0,70 Z " fill="#175AD2" transform="translate(12,424)"/>
<path d="M0,0 L936,0 L936,30 L935,30 L935,34 L934,34 L934,37 L933,37 L933,39 L932,39 L932,41 L931,41 L931,42 L930,42 L930,44 L929,44 L929,45 L928,45 L928,46 L927,46 L927,47 L926,47 L926,48 L925,48 L925,49 L923,49 L923,50 L922,50 L922,51 L920,51 L920,52 L918,52 L918,53 L915,53 L915,54 L911,54 L911,55 L25,55 L25,54 L21,54 L21,53 L18,53 L18,52 L16,52 L16,51 L14,51 L14,50 L13,50 L13,49 L11,49 L11,48 L10,48 L10,47 L9,47 L9,46 L8,46 L8,45 L7,45 L7,44 L6,44 L6,42 L5,42 L5,41 L4,41 L4,39 L3,39 L3,37 L2,37 L2,34 L1,34 L1,30 L0,30 Z " fill="#1659D1" transform="translate(12,569)"/>
<path d="M0,0 L896,0 L896,1 L899,1 L899,2 L902,2 L902,3 L904,3 L904,4 L906,4 L906,5 L907,5 L907,6 L908,6 L908,7 L910,7 L910,8 L911,8 L911,9 L912,9 L912,10 L913,10 L913,12 L914,12 L914,13 L915,13 L915,14 L916,14 L916,16 L917,16 L917,18 L918,18 L918,20 L919,20 L919,24 L920,24 L920,598 L919,598 L919,602 L918,602 L918,604 L917,604 L917,606 L916,606 L916,608 L915,608 L915,609 L914,609 L914,610 L913,610 L913,612 L912,612 L912,613 L911,613 L911,614 L910,614 L910,615 L908,615 L908,616 L907,616 L907,617 L906,617 L906,618 L904,618 L904,619 L902,619 L902,620 L899,620 L899,621 L896,621 L896,622 L0,622 L0,621 L-3,621 L-3,620 L-6,620 L-6,619 L-8,619 L-8,618 L-10,618 L-10,617 L-11,617 L-11,616 L-12,616 L-12,615 L-14,615 L-14,614 L-15,614 L-15,613 L-16,613 L-16,612 L-17,612 L-17,610 L-18,610 L-18,609 L-19,609 L-19,608 L-20,608 L-20,606 L-21,606 L-21,604 L-22,604 L-22,602 L-23,602 L-23,598 L-24,598 L-24,24 L-23,24 L-23,20 L-22,20 L-22,18 L-21,18 L-21,16 L-20,16 L-20,14 L-19,14 L-19,13 L-18,13 L-18,12 L-17,12 L-17,10 L-16,10 L-16,9 L-15,9 L-15,8 L-14,8 L-14,7 L-12,7 L-12,6 L-11,6 L-11,5 L-10,5 L-10,4 L-8,4 L-8,3 L-6,3 L-6,2 L-3,2 L-3,1 L0,1 Z M109,4 L109,132 L-20,132 L-20,207 L109,207 L109,348 L-20,348 L-20,593 L-19,593 L-19,597 L-18,597 L-18,600 L-17,600 L-17,602 L-16,602 L-16,604 L-15,604 L-15,605 L-14,605 L-14,607 L-13,607 L-13,608 L-12,608 L-12,609 L-11,609 L-11,610 L-10,610 L-10,611 L-9,611 L-9,612 L-7,612 L-7,613 L-6,613 L-6,614 L-4,614 L-4,615 L-2,615 L-2,616 L1,616 L1,617 L5,617 L5,618 L891,618 L891,617 L895,617 L895,616 L898,616 L898,615 L900,615 L900,614 L902,614 L902,613 L903,613 L903,612 L905,612 L905,611 L906,611 L906,610 L907,610 L907,609 L908,609 L908,608 L909,608 L909,607 L910,607 L910,605 L911,605 L911,604 L912,604 L912,602 L913,602 L913,600 L914,600 L914,597 L915,597 L915,593 L916,593 L916,29 L915,29 L915,25 L914,25 L914,22 L913,22 L913,20 L912,20 L912,18 L911,18 L911,17 L910,17 L910,15 L909,15 L909,14 L908,14 L908,13 L907,13 L907,12 L906,12 L906,11 L905,11 L905,10 L903,10 L903,9 L902,9 L902,8 L900,8 L900,7 L898,7 L898,6 L895,6 L895,5 L891,5 L891,4 Z " fill="#1659D1" transform="translate(32,6)"/>
<path d="M0,0 L594,0 L594,75 L0,75 Z " fill="#FFFFFF" transform="translate(354,63)"/>
<path d="M0,0 L594,0 L594,70 L0,70 Z " fill="#FFFFFF" transform="translate(354,214)"/>
<path d="M0,0 L129,0 L129,141 L0,141 Z " fill="#175AD2" transform="translate(12,213)"/>
<path d="M0,0 L896,0 L896,1 L899,1 L899,2 L902,2 L902,3 L904,3 L904,4 L906,4 L906,5 L907,5 L907,6 L908,6 L908,7 L910,7 L910,8 L911,8 L911,9 L912,9 L912,10 L913,10 L913,12 L914,12 L914,13 L915,13 L915,14 L916,14 L916,16 L917,16 L917,18 L918,18 L918,20 L919,20 L919,24 L920,24 L920,598 L919,598 L919,602 L918,602 L918,604 L917,604 L917,606 L916,606 L916,608 L915,608 L915,609 L914,609 L914,610 L913,610 L913,612 L912,612 L912,613 L911,613 L911,614 L910,614 L910,615 L908,615 L908,616 L907,616 L907,617 L906,617 L906,618 L904,618 L904,619 L902,619 L902,620 L899,620 L899,621 L896,621 L896,622 L0,622 L0,621 L-3,621 L-3,620 L-6,620 L-6,619 L-8,619 L-8,618 L-10,618 L-10,617 L-11,617 L-11,616 L-12,616 L-12,615 L-14,615 L-14,614 L-15,614 L-15,613 L-16,613 L-16,612 L-17,612 L-17,610 L-18,610 L-18,609 L-19,609 L-19,608 L-20,608 L-20,606 L-21,606 L-21,604 L-22,604 L-22,602 L-23,602 L-23,598 L-24,598 L-24,24 L-23,24 L-23,20 L-22,20 L-22,18 L-21,18 L-21,16 L-20,16 L-20,14 L-19,14 L-19,13 L-18,13 L-18,12 L-17,12 L-17,10 L-16,10 L-16,9 L-15,9 L-15,8 L-14,8 L-14,7 L-12,7 L-12,6 L-11,6 L-11,5 L-10,5 L-10,4 L-8,4 L-8,3 L-6,3 L-6,2 L-3,2 L-3,1 L0,1 Z M5,4 L5,5 L1,5 L1,6 L-2,6 L-2,7 L-4,7 L-4,8 L-6,8 L-6,9 L-7,9 L-7,10 L-9,10 L-9,11 L-10,11 L-10,12 L-11,12 L-11,13 L-12,13 L-12,14 L-13,14 L-13,15 L-14,15 L-14,17 L-15,17 L-15,18 L-16,18 L-16,20 L-17,20 L-17,22 L-18,22 L-18,25 L-19,25 L-19,29 L-20,29 L-20,593 L-19,593 L-19,597 L-18,597 L-18,600 L-17,600 L-17,602 L-16,602 L-16,604 L-15,604 L-15,605 L-14,605 L-14,607 L-13,607 L-13,608 L-12,608 L-12,609 L-11,609 L-11,610 L-10,610 L-10,611 L-9,611 L-9,612 L-7,612 L-7,613 L-6,613 L-6,614 L-4,614 L-4,615 L-2,615 L-2,616 L1,616 L1,617 L5,617 L5,618 L891,618 L891,617 L895,617 L895,616 L898,616 L898,615 L900,615 L900,614 L902,614 L902,613 L903,613 L903,612 L905,612 L905,611 L906,611 L906,610 L907,610 L907,609 L908,609 L908,608 L909,608 L909,607 L910,607 L910,605 L911,605 L911,604 L912,604 L912,602 L913,602 L913,600 L914,600 L914,597 L915,597 L915,593 L916,593 L916,29 L915,29 L915,25 L914,25 L914,22 L913,22 L913,20 L912,20 L912,18 L911,18 L911,17 L910,17 L910,15 L909,15 L909,14 L908,14 L908,13 L907,13 L907,12 L906,12 L906,11 L905,11 L905,10 L903,10 L903,9 L902,9 L902,8 L900,8 L900,7 L898,7 L898,6 L895,6 L895,5 L891,5 L891,4 Z " fill="#000000" transform="translate(32,6)"/>
<path d="M0,0 L2,0 L2,1 L1,1 L1,2 L0,2 L0,3 L-1,3 L-1,4 L-2,4 L-2,5 L-3,5 L-3,6 L-4,6 L-4,7 L-5,7 L-5,8 L-6,8 L-6,9 L-7,9 L-7,10 L-8,10 L-8,11 L-10,11 L-10,10 L-9,10 L-9,9 L-8,9 L-8,7 L-7,7 L-7,6 L-6,6 L-6,5 L-5,5 L-5,4 L-4,4 L-4,3 L-3,3 L-3,2 L-1,2 L-1,1 L0,1 Z " fill="#134CB3" transform="translate(26,14)"/>
</svg>
