<?xml version="1.0" encoding="UTF-8"?>
<svg version="1.1" xmlns="http://www.w3.org/2000/svg" width="951" height="628">
<path d="M0,0 L896,0 L896,1 L899,1 L899,2 L902,2 L902,3 L904,3 L904,4 L906,4 L906,5 L907,5 L907,6 L908,6 L908,7 L910,7 L910,8 L911,8 L911,9 L912,9 L912,10 L913,10 L913,12 L914,12 L914,13 L915,13 L915,14 L916,14 L916,16 L917,16 L917,18 L918,18 L918,20 L919,20 L919,24 L920,24 L920,598 L919,598 L919,602 L918,602 L918,604 L917,604 L917,606 L916,606 L916,608 L915,608 L915,609 L914,609 L914,610 L913,610 L913,612 L912,612 L912,613 L911,613 L911,614 L910,614 L910,615 L908,615 L908,616 L907,616 L907,617 L906,617 L906,618 L904,618 L904,619 L902,619 L902,620 L899,620 L899,621 L896,621 L896,622 L0,622 L0,621 L-3,621 L-3,620 L-6,620 L-6,619 L-8,619 L-8,618 L-10,618 L-10,617 L-11,617 L-11,616 L-12,616 L-12,615 L-14,615 L-14,614 L-15,614 L-15,613 L-16,613 L-16,612 L-17,612 L-17,610 L-18,610 L-18,609 L-19,609 L-19,608 L-20,608 L-20,606 L-21,606 L-21,604 L-22,604 L-22,602 L-23,602 L-23,598 L-24,598 L-24,24 L-23,24 L-23,20 L-22,20 L-22,18 L-21,18 L-21,16 L-20,16 L-20,14 L-19,14 L-19,13 L-18,13 L-18,12 L-17,12 L-17,10 L-16,10 L-16,9 L-15,9 L-15,8 L-14,8 L-14,7 L-12,7 L-12,6 L-11,6 L-11,5 L-10,5 L-10,4 L-8,4 L-8,3 L-6,3 L-6,2 L-3,2 L-3,1 L0,1 Z " fill="#1A2F5D" transform="translate(27,2)"/>
<path d="M0,0 L936,0 L936,146 L0,146 Z " fill="#BC3C43" transform="translate(7,439)"/>
<path d="M0,0 L540,0 L540,147 L-396,147 L-396,98 L0,98 Z " fill="#BC3C43" transform="translate(403,244)"/>
<path d="M0,0 L540,0 L540,146 L0,146 Z " fill="#BC3D44" transform="translate(403,50)"/>
<path d="M0,0 L936,0 L936,49 L0,49 Z " fill="#FDFBFC" transform="translate(7,439)"/>
<path d="M0,0 L936,0 L936,49 L0,49 Z " fill="#FDFBFB" transform="translate(7,342)"/>
<path d="M0,0 L936,0 L936,48 L0,48 Z " fill="#FEFDFD" transform="translate(7,537)"/>
<path d="M0,0 L936,0 L936,48 L0,48 Z " fill="#BC3C43" transform="translate(7,391)"/>
<path d="M0,0 L936,0 L936,9 L935,9 L935,14 L934,14 L934,17 L933,17 L933,19 L932,19 L932,21 L931,21 L931,22 L930,22 L930,24 L929,24 L929,25 L928,25 L928,26 L927,26 L927,27 L926,27 L926,28 L925,28 L925,29 L923,29 L923,30 L922,30 L922,31 L920,31 L920,32 L918,32 L918,33 L915,33 L915,34 L911,34 L911,35 L25,35 L25,34 L21,34 L21,33 L18,33 L18,32 L16,32 L16,31 L14,31 L14,30 L13,30 L13,29 L11,29 L11,28 L10,28 L10,27 L9,27 L9,26 L8,26 L8,25 L7,25 L7,24 L6,24 L6,22 L5,22 L5,21 L4,21 L4,19 L3,19 L3,17 L2,17 L2,14 L1,14 L1,10 L0,10 Z " fill="#BC3D44" transform="translate(7,585)"/>
<path d="M0,0 L540,0 L540,49 L0,49 Z " fill="#FDFCFC" transform="translate(403,244)"/>
<path d="M0,0 L540,0 L540,49 L0,49 Z " fill="#FDFBFB" transform="translate(403,147)"/>
<path d="M0,0 L540,0 L540,48 L0,48 Z " fill="#BC3C43" transform="translate(403,196)"/>
<path d="M0,0 L540,0 L540,48 L0,48 Z " fill="#FEFDFD" transform="translate(403,50)"/>
<path d="M0,0 L515,0 L515,1 L519,1 L519,2 L522,2 L522,3 L524,3 L524,4 L526,4 L526,5 L527,5 L527,6 L529,6 L529,7 L530,7 L530,8 L531,8 L531,9 L532,9 L532,10 L533,10 L533,11 L534,11 L534,13 L535,13 L535,14 L536,14 L536,16 L537,16 L537,18 L538,18 L538,21 L539,21 L539,25 L540,25 L540,44 L0,44 Z " fill="#BC3D44" transform="translate(403,6)"/>
<path d="M0,0 L896,0 L896,1 L899,1 L899,2 L902,2 L902,3 L904,3 L904,4 L906,4 L906,5 L907,5 L907,6 L908,6 L908,7 L910,7 L910,8 L911,8 L911,9 L912,9 L912,10 L913,10 L913,12 L914,12 L914,13 L915,13 L915,14 L916,14 L916,16 L917,16 L917,18 L918,18 L918,20 L919,20 L919,24 L920,24 L920,598 L919,598 L919,602 L918,602 L918,604 L917,604 L917,606 L916,606 L916,608 L915,608 L915,609 L914,609 L914,610 L913,610 L913,612 L912,612 L912,613 L911,613 L911,614 L910,614 L910,615 L908,615 L908,616 L907,616 L907,617 L906,617 L906,618 L904,618 L904,619 L902,619 L902,620 L899,620 L899,621 L896,621 L896,622 L0,622 L0,621 L-3,621 L-3,620 L-6,620 L-6,619 L-8,619 L-8,618 L-10,618 L-10,617 L-11,617 L-11,616 L-12,616 L-12,615 L-14,615 L-14,614 L-15,614 L-15,613 L-16,613 L-16,612 L-17,612 L-17,610 L-18,610 L-18,609 L-19,609 L-19,608 L-20,608 L-20,606 L-21,606 L-21,604 L-22,604 L-22,602 L-23,602 L-23,598 L-24,598 L-24,24 L-23,24 L-23,20 L-22,20 L-22,18 L-21,18 L-21,16 L-20,16 L-20,14 L-19,14 L-19,13 L-18,13 L-18,12 L-17,12 L-17,10 L-16,10 L-16,9 L-15,9 L-15,8 L-14,8 L-14,7 L-12,7 L-12,6 L-11,6 L-11,5 L-10,5 L-10,4 L-8,4 L-8,3 L-6,3 L-6,2 L-3,2 L-3,1 L0,1 Z M5,4 L5,5 L1,5 L1,6 L-2,6 L-2,7 L-4,7 L-4,8 L-6,8 L-6,9 L-7,9 L-7,10 L-9,10 L-9,11 L-10,11 L-10,12 L-11,12 L-11,13 L-12,13 L-12,14 L-13,14 L-13,15 L-14,15 L-14,17 L-15,17 L-15,18 L-16,18 L-16,20 L-17,20 L-17,22 L-18,22 L-18,25 L-19,25 L-19,29 L-20,29 L-20,337 L375,337 L375,339 L-20,339 L-20,593 L-19,593 L-19,597 L-18,597 L-18,600 L-17,600 L-17,602 L-16,602 L-16,604 L-15,604 L-15,605 L-14,605 L-14,607 L-13,607 L-13,608 L-12,608 L-12,609 L-11,609 L-11,610 L-10,610 L-10,611 L-9,611 L-9,612 L-7,612 L-7,613 L-6,613 L-6,614 L-4,614 L-4,615 L-2,615 L-2,616 L1,616 L1,617 L5,617 L5,618 L891,618 L891,617 L895,617 L895,616 L898,616 L898,615 L900,615 L900,614 L902,614 L902,613 L903,613 L903,612 L905,612 L905,611 L906,611 L906,610 L907,610 L907,609 L908,609 L908,608 L909,608 L909,607 L910,607 L910,605 L911,605 L911,604 L912,604 L912,602 L913,602 L913,600 L914,600 L914,597 L915,597 L915,592 L916,592 L916,29 L915,29 L915,25 L914,25 L914,22 L913,22 L913,20 L912,20 L912,18 L911,18 L911,17 L910,17 L910,15 L909,15 L909,14 L908,14 L908,13 L907,13 L907,12 L906,12 L906,11 L905,11 L905,10 L903,10 L903,9 L902,9 L902,8 L900,8 L900,7 L898,7 L898,6 L895,6 L895,5 L891,5 L891,4 Z " fill="#000104" transform="translate(27,2)"/>
<path d="M0,0 L936,0 L936,3 L0,3 Z " fill="#BC4C51" transform="translate(7,534)"/>
<path d="M0,0 L540,0 L540,3 L0,3 Z " fill="#BA444A" transform="translate(403,339)"/>
<path d="M0,0 L540,0 L540,3 L0,3 Z " fill="#BB474D" transform="translate(403,47)"/>
<path d="M0,0 L2,0 L2,4 L3,4 L3,7 L4,7 L4,12 L16,12 L16,14 L14,14 L14,15 L13,15 L13,16 L12,16 L12,17 L10,17 L10,18 L9,18 L9,19 L8,19 L8,20 L7,20 L7,23 L8,23 L8,27 L9,27 L9,31 L10,31 L10,34 L9,34 L9,33 L8,33 L8,32 L7,32 L7,31 L6,31 L6,30 L5,30 L5,29 L4,29 L4,28 L3,28 L3,27 L2,27 L2,26 L0,26 L0,27 L-1,27 L-1,28 L-2,28 L-2,29 L-3,29 L-3,30 L-4,30 L-4,31 L-5,31 L-5,32 L-7,32 L-7,34 L-9,34 L-9,31 L-8,31 L-8,28 L-7,28 L-7,24 L-6,24 L-6,20 L-7,20 L-7,19 L-8,19 L-8,18 L-9,18 L-9,17 L-10,17 L-10,16 L-12,16 L-12,15 L-13,15 L-13,14 L-14,14 L-14,12 L-2,12 L-2,7 L-1,7 L-1,4 L0,4 Z " fill="#E5E7EC" transform="translate(100,221)"/>
<path d="M0,0 L2,0 L2,1 L3,1 L3,5 L4,5 L4,8 L5,8 L5,12 L16,12 L16,14 L15,14 L15,15 L13,15 L13,16 L12,16 L12,17 L11,17 L11,18 L10,18 L10,19 L9,19 L9,20 L8,20 L8,23 L9,23 L9,27 L10,27 L10,31 L11,31 L11,33 L9,33 L9,32 L8,32 L8,31 L7,31 L7,30 L6,30 L6,29 L4,29 L4,28 L3,28 L3,26 L0,26 L0,28 L-2,28 L-2,29 L-3,29 L-3,30 L-4,30 L-4,31 L-5,31 L-5,32 L-6,32 L-6,33 L-7,33 L-7,34 L-8,34 L-8,31 L-7,31 L-7,27 L-6,27 L-6,23 L-5,23 L-5,20 L-6,20 L-6,19 L-7,19 L-7,18 L-8,18 L-8,17 L-9,17 L-9,16 L-11,16 L-11,15 L-12,15 L-12,14 L-13,14 L-13,12 L-2,12 L-2,8 L-1,8 L-1,6 L0,6 Z " fill="#E6E8ED" transform="translate(267,187)"/>
<path d="M0,0 L2,0 L2,4 L3,4 L3,7 L4,7 L4,12 L16,12 L16,14 L14,14 L14,15 L13,15 L13,16 L12,16 L12,17 L11,17 L11,18 L10,18 L10,19 L8,19 L8,24 L9,24 L9,28 L10,28 L10,31 L11,31 L11,34 L9,34 L9,33 L8,33 L8,32 L7,32 L7,31 L6,31 L6,30 L5,30 L5,29 L4,29 L4,28 L3,28 L3,27 L2,27 L2,26 L0,26 L0,27 L-1,27 L-1,28 L-2,28 L-2,29 L-3,29 L-3,30 L-4,30 L-4,31 L-5,31 L-5,32 L-6,32 L-6,33 L-8,33 L-8,31 L-7,31 L-7,27 L-6,27 L-6,23 L-5,23 L-5,20 L-6,20 L-6,19 L-8,19 L-8,18 L-9,18 L-9,17 L-10,17 L-10,16 L-11,16 L-11,15 L-12,15 L-12,14 L-14,14 L-14,12 L-2,12 L-2,8 L-1,8 L-1,4 L0,4 Z " fill="#EBEDF1" transform="translate(368,221)"/>
<path d="M0,0 L2,0 L2,3 L3,3 L3,5 L4,5 L4,8 L5,8 L5,12 L16,12 L16,14 L14,14 L14,15 L13,15 L13,16 L12,16 L12,17 L11,17 L11,18 L10,18 L10,19 L9,19 L9,20 L8,20 L8,25 L9,25 L9,27 L10,27 L10,33 L9,33 L9,32 L8,32 L8,31 L6,31 L6,30 L5,30 L5,29 L4,29 L4,28 L3,28 L3,26 L0,26 L0,27 L-1,27 L-1,28 L-2,28 L-2,29 L-3,29 L-3,30 L-4,30 L-4,31 L-5,31 L-5,32 L-6,32 L-6,33 L-7,33 L-7,34 L-8,34 L-8,31 L-7,31 L-7,27 L-6,27 L-6,23 L-5,23 L-5,20 L-6,20 L-6,19 L-7,19 L-7,18 L-9,18 L-9,17 L-10,17 L-10,16 L-11,16 L-11,15 L-12,15 L-12,14 L-13,14 L-13,12 L-2,12 L-2,8 L-1,8 L-1,4 L0,4 Z " fill="#EDEFF2" transform="translate(133,187)"/>
<path d="M0,0 L1,0 L1,2 L2,2 L2,7 L3,7 L3,11 L4,11 L4,12 L15,12 L15,14 L14,14 L14,15 L13,15 L13,16 L11,16 L11,17 L10,17 L10,18 L9,18 L9,19 L8,19 L8,20 L7,20 L7,24 L8,24 L8,27 L9,27 L9,31 L10,31 L10,34 L8,34 L8,32 L6,32 L6,31 L5,31 L5,30 L4,30 L4,29 L3,29 L3,28 L2,28 L2,27 L-1,27 L-1,28 L-3,28 L-3,29 L-4,29 L-4,30 L-5,30 L-5,31 L-6,31 L-6,32 L-7,32 L-7,33 L-8,33 L-8,34 L-9,34 L-9,31 L-8,31 L-8,26 L-7,26 L-7,23 L-6,23 L-6,20 L-8,20 L-8,19 L-9,19 L-9,18 L-10,18 L-10,17 L-11,17 L-11,16 L-12,16 L-12,15 L-13,15 L-13,14 L-14,14 L-14,13 L-4,13 L-4,12 L-3,12 L-3,9 L-2,9 L-2,4 L-1,4 L-1,1 L0,1 Z " fill="#EFF1F4" transform="translate(67,255)"/>
<path d="M0,0 L2,0 L2,4 L3,4 L3,8 L4,8 L4,12 L15,12 L15,14 L14,14 L14,15 L13,15 L13,16 L12,16 L12,17 L10,17 L10,18 L9,18 L9,19 L8,19 L8,20 L7,20 L7,23 L8,23 L8,27 L9,27 L9,31 L10,31 L10,34 L9,34 L9,33 L8,33 L8,32 L7,32 L7,31 L6,31 L6,30 L5,30 L5,29 L3,29 L3,28 L2,28 L2,26 L0,26 L0,27 L-1,27 L-1,28 L-2,28 L-2,29 L-3,29 L-3,30 L-5,30 L-5,31 L-6,31 L-6,32 L-7,32 L-7,33 L-8,33 L-8,27 L-7,27 L-7,24 L-6,24 L-6,20 L-7,20 L-7,19 L-8,19 L-8,18 L-9,18 L-9,17 L-10,17 L-10,16 L-12,16 L-12,15 L-13,15 L-13,14 L-14,14 L-14,12 L-3,12 L-3,11 L-2,11 L-2,7 L-1,7 L-1,4 L0,4 Z " fill="#E8EAEF" transform="translate(33,221)"/>
<path d="M0,0 L2,0 L2,1 L3,1 L3,4 L4,4 L4,8 L5,8 L5,12 L16,12 L16,14 L14,14 L14,15 L13,15 L13,16 L12,16 L12,17 L11,17 L11,18 L10,18 L10,19 L9,19 L9,20 L8,20 L8,23 L9,23 L9,27 L10,27 L10,31 L11,31 L11,34 L10,34 L10,33 L9,33 L9,32 L8,32 L8,31 L7,31 L7,30 L6,30 L6,29 L4,29 L4,28 L3,28 L3,26 L0,26 L0,27 L-1,27 L-1,28 L-2,28 L-2,29 L-3,29 L-3,30 L-4,30 L-4,31 L-5,31 L-5,32 L-6,32 L-6,33 L-7,33 L-7,34 L-8,34 L-8,31 L-7,31 L-7,27 L-6,27 L-6,23 L-5,23 L-5,20 L-6,20 L-6,19 L-7,19 L-7,18 L-8,18 L-8,17 L-9,17 L-9,16 L-11,16 L-11,15 L-12,15 L-12,14 L-13,14 L-13,12 L-1,12 L-1,6 L0,6 Z " fill="#E9EBEF" transform="translate(267,119)"/>
<path d="M0,0 L2,0 L2,4 L3,4 L3,7 L4,7 L4,12 L16,12 L16,14 L14,14 L14,15 L13,15 L13,16 L12,16 L12,17 L11,17 L11,18 L10,18 L10,19 L8,19 L8,20 L7,20 L7,23 L8,23 L8,26 L9,26 L9,28 L10,28 L10,32 L11,32 L11,34 L9,34 L9,33 L8,33 L8,32 L7,32 L7,31 L6,31 L6,30 L5,30 L5,29 L4,29 L4,28 L3,28 L3,27 L2,27 L2,26 L0,26 L0,27 L-1,27 L-1,28 L-2,28 L-2,29 L-3,29 L-3,30 L-4,30 L-4,31 L-5,31 L-5,32 L-6,32 L-6,33 L-8,33 L-8,31 L-7,31 L-7,27 L-6,27 L-6,23 L-5,23 L-5,21 L-6,21 L-6,20 L-7,20 L-7,19 L-8,19 L-8,18 L-9,18 L-9,17 L-10,17 L-10,16 L-11,16 L-11,15 L-12,15 L-12,14 L-14,14 L-14,12 L-2,12 L-2,8 L-1,8 L-1,5 L0,5 Z " fill="#EAECF0" transform="translate(301,221)"/>
<path d="M0,0 L2,0 L2,4 L3,4 L3,8 L4,8 L4,12 L16,12 L16,14 L14,14 L14,15 L13,15 L13,16 L12,16 L12,17 L11,17 L11,18 L9,18 L9,19 L8,19 L8,20 L7,20 L7,23 L8,23 L8,27 L9,27 L9,31 L10,31 L10,33 L8,33 L8,32 L7,32 L7,31 L6,31 L6,30 L5,30 L5,29 L4,29 L4,28 L3,28 L3,27 L2,27 L2,26 L0,26 L0,27 L-1,27 L-1,28 L-2,28 L-2,29 L-3,29 L-3,30 L-5,30 L-5,31 L-6,31 L-6,33 L-7,33 L-7,34 L-9,34 L-9,31 L-8,31 L-8,28 L-7,28 L-7,26 L-6,26 L-6,23 L-5,23 L-5,20 L-7,20 L-7,19 L-8,19 L-8,18 L-9,18 L-9,17 L-10,17 L-10,16 L-11,16 L-11,15 L-12,15 L-12,14 L-14,14 L-14,12 L-2,12 L-2,6 L-1,6 L-1,3 L0,3 Z " fill="#E9EBEF" transform="translate(167,221)"/>
<path d="M0,0 L2,0 L2,3 L3,3 L3,6 L4,6 L4,8 L5,8 L5,12 L16,12 L16,14 L14,14 L14,15 L13,15 L13,16 L12,16 L12,17 L11,17 L11,18 L10,18 L10,19 L9,19 L9,20 L8,20 L8,23 L9,23 L9,27 L10,27 L10,33 L9,33 L9,32 L8,32 L8,31 L7,31 L7,30 L6,30 L6,29 L4,29 L4,28 L3,28 L3,26 L0,26 L0,28 L-2,28 L-2,29 L-3,29 L-3,30 L-4,30 L-4,31 L-5,31 L-5,32 L-6,32 L-6,33 L-7,33 L-7,34 L-8,34 L-8,31 L-7,31 L-7,27 L-6,27 L-6,23 L-5,23 L-5,20 L-6,20 L-6,19 L-7,19 L-7,18 L-8,18 L-8,17 L-9,17 L-9,16 L-11,16 L-11,15 L-12,15 L-12,14 L-13,14 L-13,12 L-2,12 L-2,8 L-1,8 L-1,6 L0,6 Z " fill="#E7E9EE" transform="translate(200,187)"/>
<path d="M0,0 L1,0 L1,2 L2,2 L2,5 L3,5 L3,11 L4,11 L4,12 L15,12 L15,14 L13,14 L13,15 L12,15 L12,16 L11,16 L11,17 L10,17 L10,18 L9,18 L9,19 L8,19 L8,20 L7,20 L7,25 L8,25 L8,31 L9,31 L9,33 L8,33 L8,32 L7,32 L7,31 L5,31 L5,30 L4,30 L4,29 L3,29 L3,28 L2,28 L2,27 L-2,27 L-2,28 L-3,28 L-3,29 L-4,29 L-4,30 L-5,30 L-5,31 L-6,31 L-6,32 L-7,32 L-7,33 L-8,33 L-8,34 L-9,34 L-9,31 L-8,31 L-8,26 L-7,26 L-7,23 L-6,23 L-6,20 L-7,20 L-7,19 L-8,19 L-8,18 L-10,18 L-10,17 L-11,17 L-11,16 L-12,16 L-12,15 L-13,15 L-13,14 L-14,14 L-14,12 L-3,12 L-3,9 L-2,9 L-2,4 L-1,4 L-1,1 L0,1 Z " fill="#E8EAEE" transform="translate(67,187)"/>
<path d="M0,0 L2,0 L2,4 L3,4 L3,5 L4,5 L4,8 L5,8 L5,12 L16,12 L16,14 L15,14 L15,15 L14,15 L14,16 L12,16 L12,17 L11,17 L11,18 L10,18 L10,19 L9,19 L9,20 L8,20 L8,24 L9,24 L9,27 L10,27 L10,33 L9,33 L9,32 L8,32 L8,31 L6,31 L6,30 L5,30 L5,29 L4,29 L4,28 L3,28 L3,27 L0,27 L0,28 L-1,28 L-1,29 L-3,29 L-3,30 L-4,30 L-4,31 L-5,31 L-5,32 L-6,32 L-6,33 L-7,33 L-7,34 L-8,34 L-8,31 L-7,31 L-7,28 L-6,28 L-6,24 L-5,24 L-5,20 L-6,20 L-6,19 L-7,19 L-7,18 L-9,18 L-9,17 L-10,17 L-10,16 L-11,16 L-11,15 L-12,15 L-12,14 L-13,14 L-13,13 L-2,13 L-2,8 L-1,8 L-1,5 L0,5 Z " fill="#EDEFF2" transform="translate(200,255)"/>
<path d="M0,0 L2,0 L2,5 L3,5 L3,8 L4,8 L4,12 L16,12 L16,14 L14,14 L14,15 L13,15 L13,16 L12,16 L12,17 L10,17 L10,18 L9,18 L9,19 L8,19 L8,20 L7,20 L7,23 L8,23 L8,26 L9,26 L9,28 L10,28 L10,33 L8,33 L8,31 L6,31 L6,30 L5,30 L5,29 L4,29 L4,28 L3,28 L3,27 L2,27 L2,26 L0,26 L0,27 L-1,27 L-1,28 L-2,28 L-2,29 L-3,29 L-3,30 L-5,30 L-5,31 L-6,31 L-6,33 L-7,33 L-7,34 L-9,34 L-9,31 L-8,31 L-8,28 L-7,28 L-7,26 L-6,26 L-6,23 L-5,23 L-5,20 L-7,20 L-7,19 L-8,19 L-8,18 L-9,18 L-9,17 L-10,17 L-10,16 L-11,16 L-11,15 L-12,15 L-12,14 L-13,14 L-13,12 L-2,12 L-2,7 L-1,7 L-1,4 L0,4 Z " fill="#E8EBEF" transform="translate(234,153)"/>
<path d="M0,0 L2,0 L2,2 L3,2 L3,5 L4,5 L4,11 L5,11 L5,12 L16,12 L16,14 L14,14 L14,15 L13,15 L13,16 L12,16 L12,17 L11,17 L11,18 L9,18 L9,19 L8,19 L8,24 L9,24 L9,27 L10,27 L10,33 L9,33 L9,32 L8,32 L8,31 L7,31 L7,30 L6,30 L6,29 L4,29 L4,28 L3,28 L3,26 L0,26 L0,27 L-1,27 L-1,28 L-2,28 L-2,29 L-3,29 L-3,30 L-4,30 L-4,31 L-5,31 L-5,32 L-6,32 L-6,33 L-8,33 L-8,31 L-7,31 L-7,27 L-6,27 L-6,23 L-5,23 L-5,20 L-6,20 L-6,19 L-7,19 L-7,18 L-8,18 L-8,17 L-9,17 L-9,16 L-11,16 L-11,15 L-12,15 L-12,14 L-13,14 L-13,12 L-2,12 L-2,7 L-1,7 L-1,4 L0,4 Z " fill="#ECEEF2" transform="translate(66,119)"/>
<path d="M0,0 L2,0 L2,5 L3,5 L3,8 L4,8 L4,12 L16,12 L16,14 L14,14 L14,15 L13,15 L13,16 L12,16 L12,17 L11,17 L11,18 L9,18 L9,19 L8,19 L8,20 L7,20 L7,23 L8,23 L8,26 L9,26 L9,31 L10,31 L10,33 L8,33 L8,32 L7,32 L7,31 L6,31 L6,30 L5,30 L5,29 L4,29 L4,28 L3,28 L3,27 L2,27 L2,26 L0,26 L0,27 L-1,27 L-1,28 L-2,28 L-2,29 L-3,29 L-3,30 L-4,30 L-4,31 L-5,31 L-5,32 L-6,32 L-6,33 L-8,33 L-8,31 L-7,31 L-7,24 L-6,24 L-6,20 L-7,20 L-7,19 L-8,19 L-8,18 L-9,18 L-9,17 L-10,17 L-10,16 L-11,16 L-11,15 L-12,15 L-12,14 L-14,14 L-14,12 L-2,12 L-2,8 L-1,8 L-1,5 L0,5 Z " fill="#E8EAEF" transform="translate(234,221)"/>
<path d="M0,0 L2,0 L2,4 L3,4 L3,9 L4,9 L4,12 L15,12 L15,14 L14,14 L14,15 L13,15 L13,16 L11,16 L11,17 L10,17 L10,18 L9,18 L9,19 L8,19 L8,20 L7,20 L7,23 L8,23 L8,27 L9,27 L9,31 L10,31 L10,33 L8,33 L8,32 L7,32 L7,31 L6,31 L6,30 L5,30 L5,29 L4,29 L4,28 L3,28 L3,27 L2,27 L2,26 L0,26 L0,27 L-1,27 L-1,28 L-2,28 L-2,29 L-4,29 L-4,30 L-5,30 L-5,31 L-6,31 L-6,32 L-7,32 L-7,33 L-8,33 L-8,27 L-7,27 L-7,24 L-6,24 L-6,20 L-7,20 L-7,19 L-8,19 L-8,18 L-9,18 L-9,17 L-10,17 L-10,16 L-12,16 L-12,15 L-13,15 L-13,14 L-14,14 L-14,12 L-3,12 L-3,11 L-2,11 L-2,7 L-1,7 L-1,4 L0,4 Z " fill="#E9EBF0" transform="translate(33,153)"/>
<path d="M0,0 L1,0 L1,3 L2,3 L2,6 L3,6 L3,12 L15,12 L15,14 L13,14 L13,15 L12,15 L12,16 L11,16 L11,17 L10,17 L10,18 L9,18 L9,19 L7,19 L7,25 L8,25 L8,27 L9,27 L9,31 L10,31 L10,33 L8,33 L8,32 L7,32 L7,31 L6,31 L6,30 L5,30 L5,29 L3,29 L3,28 L2,28 L2,26 L-1,26 L-1,27 L-2,27 L-2,28 L-3,28 L-3,29 L-4,29 L-4,30 L-5,30 L-5,31 L-6,31 L-6,32 L-7,32 L-7,33 L-8,33 L-8,34 L-9,34 L-9,31 L-8,31 L-8,26 L-7,26 L-7,23 L-6,23 L-6,20 L-7,20 L-7,19 L-8,19 L-8,18 L-9,18 L-9,17 L-10,17 L-10,16 L-12,16 L-12,15 L-13,15 L-13,14 L-14,14 L-14,12 L-3,12 L-3,8 L-2,8 L-2,4 L-1,4 L-1,1 L0,1 Z " fill="#EBEDF1" transform="translate(134,119)"/>
<path d="M0,0 L1,0 L1,1 L2,1 L2,4 L3,4 L3,8 L4,8 L4,12 L15,12 L15,14 L13,14 L13,15 L12,15 L12,16 L11,16 L11,17 L10,17 L10,18 L9,18 L9,19 L8,19 L8,20 L7,20 L7,23 L8,23 L8,27 L9,27 L9,31 L10,31 L10,33 L8,33 L8,32 L7,32 L7,31 L6,31 L6,30 L5,30 L5,29 L3,29 L3,28 L2,28 L2,26 L-1,26 L-1,27 L-2,27 L-2,28 L-3,28 L-3,29 L-4,29 L-4,30 L-5,30 L-5,31 L-6,31 L-6,32 L-7,32 L-7,34 L-9,34 L-9,31 L-8,31 L-8,27 L-7,27 L-7,24 L-6,24 L-6,20 L-7,20 L-7,19 L-8,19 L-8,18 L-9,18 L-9,17 L-10,17 L-10,16 L-11,16 L-11,15 L-13,15 L-13,14 L-14,14 L-14,12 L-2,12 L-2,6 L-1,6 L-1,4 L0,4 Z " fill="#E8EAEE" transform="translate(335,119)"/>
<path d="M0,0 L1,0 L1,1 L2,1 L2,4 L3,4 L3,7 L4,7 L4,12 L15,12 L15,14 L13,14 L13,15 L12,15 L12,16 L11,16 L11,17 L10,17 L10,18 L9,18 L9,19 L7,19 L7,22 L8,22 L8,27 L9,27 L9,31 L10,31 L10,33 L8,33 L8,31 L6,31 L6,30 L5,30 L5,29 L4,29 L4,28 L3,28 L3,27 L2,27 L2,26 L-1,26 L-1,27 L-2,27 L-2,28 L-3,28 L-3,29 L-4,29 L-4,30 L-5,30 L-5,31 L-6,31 L-6,32 L-7,32 L-7,33 L-9,33 L-9,31 L-8,31 L-8,27 L-7,27 L-7,23 L-6,23 L-6,19 L-7,19 L-7,18 L-9,18 L-9,17 L-10,17 L-10,16 L-11,16 L-11,15 L-12,15 L-12,14 L-13,14 L-13,13 L-14,13 L-14,12 L-3,12 L-3,8 L-2,8 L-2,5 L-1,5 L-1,2 L0,2 Z " fill="#E8EAEF" transform="translate(33,17)"/>
<path d="M0,0 L1,0 L1,1 L2,1 L2,4 L3,4 L3,9 L4,9 L4,12 L15,12 L15,14 L14,14 L14,15 L12,15 L12,16 L11,16 L11,17 L10,17 L10,18 L9,18 L9,19 L8,19 L8,20 L7,20 L7,23 L8,23 L8,26 L9,26 L9,31 L10,31 L10,34 L9,34 L9,33 L8,33 L8,32 L7,32 L7,31 L6,31 L6,30 L5,30 L5,29 L3,29 L3,28 L2,28 L2,26 L-1,26 L-1,28 L-2,28 L-2,29 L-4,29 L-4,30 L-5,30 L-5,31 L-6,31 L-6,32 L-7,32 L-7,34 L-9,34 L-9,31 L-8,31 L-8,29 L-7,29 L-7,25 L-6,25 L-6,20 L-7,20 L-7,19 L-8,19 L-8,18 L-9,18 L-9,17 L-10,17 L-10,16 L-12,16 L-12,15 L-13,15 L-13,14 L-14,14 L-14,12 L-2,12 L-2,9 L-1,9 L-1,4 L0,4 Z " fill="#E9EBEF" transform="translate(335,187)"/>
<path d="M0,0 L2,0 L2,1 L3,1 L3,4 L4,4 L4,8 L5,8 L5,12 L16,12 L16,14 L14,14 L14,15 L13,15 L13,16 L12,16 L12,17 L11,17 L11,18 L10,18 L10,19 L8,19 L8,23 L9,23 L9,28 L10,28 L10,31 L11,31 L11,33 L9,33 L9,32 L8,32 L8,31 L7,31 L7,30 L6,30 L6,29 L5,29 L5,28 L4,28 L4,27 L3,27 L3,26 L0,26 L0,27 L-1,27 L-1,28 L-2,28 L-2,29 L-3,29 L-3,30 L-4,30 L-4,31 L-5,31 L-5,32 L-6,32 L-6,33 L-8,33 L-8,31 L-7,31 L-7,28 L-6,28 L-6,24 L-5,24 L-5,20 L-6,20 L-6,19 L-7,19 L-7,18 L-8,18 L-8,17 L-9,17 L-9,16 L-10,16 L-10,15 L-11,15 L-11,14 L-13,14 L-13,12 L-2,12 L-2,11 L-1,11 L-1,4 L0,4 Z " fill="#ECEEF2" transform="translate(267,51)"/>
<path d="M0,0 L2,0 L2,3 L3,3 L3,4 L4,4 L4,11 L5,11 L5,12 L16,12 L16,14 L14,14 L14,15 L13,15 L13,16 L12,16 L12,17 L11,17 L11,18 L9,18 L9,19 L8,19 L8,23 L9,23 L9,28 L10,28 L10,31 L11,31 L11,33 L9,33 L9,32 L8,32 L8,31 L7,31 L7,30 L6,30 L6,29 L4,29 L4,28 L3,28 L3,26 L0,26 L0,27 L-1,27 L-1,28 L-2,28 L-2,29 L-3,29 L-3,30 L-4,30 L-4,31 L-5,31 L-5,32 L-6,32 L-6,33 L-8,33 L-8,31 L-7,31 L-7,28 L-6,28 L-6,23 L-5,23 L-5,20 L-6,20 L-6,19 L-7,19 L-7,18 L-8,18 L-8,17 L-9,17 L-9,16 L-10,16 L-10,15 L-11,15 L-11,14 L-13,14 L-13,12 L-2,12 L-2,8 L-1,8 L-1,4 L0,4 Z " fill="#EBEDF1" transform="translate(200,51)"/>
<path d="M0,0 L1,0 L1,1 L2,1 L2,4 L3,4 L3,7 L4,7 L4,12 L15,12 L15,14 L13,14 L13,15 L12,15 L12,16 L11,16 L11,17 L10,17 L10,18 L9,18 L9,19 L7,19 L7,23 L8,23 L8,26 L9,26 L9,31 L10,31 L10,33 L8,33 L8,32 L7,32 L7,31 L6,31 L6,30 L5,30 L5,29 L4,29 L4,28 L3,28 L3,27 L2,27 L2,26 L-1,26 L-1,27 L-2,27 L-2,28 L-3,28 L-3,29 L-4,29 L-4,30 L-5,30 L-5,31 L-6,31 L-6,32 L-7,32 L-7,33 L-9,33 L-9,31 L-8,31 L-8,29 L-7,29 L-7,23 L-6,23 L-6,19 L-8,19 L-8,18 L-9,18 L-9,17 L-10,17 L-10,16 L-11,16 L-11,15 L-12,15 L-12,14 L-14,14 L-14,12 L-3,12 L-3,8 L-2,8 L-2,6 L-1,6 L-1,4 L0,4 Z " fill="#EBEDF1" transform="translate(335,51)"/>
<path d="M0,0 L2,0 L2,4 L3,4 L3,7 L4,7 L4,12 L15,12 L15,14 L13,14 L13,15 L12,15 L12,16 L11,16 L11,17 L10,17 L10,18 L9,18 L9,19 L8,19 L8,20 L7,20 L7,23 L8,23 L8,27 L9,27 L9,31 L10,31 L10,33 L8,33 L8,32 L7,32 L7,31 L6,31 L6,30 L5,30 L5,29 L4,29 L4,28 L3,28 L3,27 L2,27 L2,26 L-1,26 L-1,28 L-3,28 L-3,29 L-4,29 L-4,30 L-5,30 L-5,31 L-6,31 L-6,32 L-7,32 L-7,33 L-8,33 L-8,27 L-7,27 L-7,23 L-6,23 L-6,20 L-7,20 L-7,19 L-8,19 L-8,18 L-9,18 L-9,17 L-10,17 L-10,16 L-11,16 L-11,15 L-12,15 L-12,14 L-14,14 L-14,12 L-3,12 L-3,11 L-2,11 L-2,7 L-1,7 L-1,4 L0,4 Z " fill="#EBEDF1" transform="translate(33,85)"/>
<path d="M0,0 L3,0 L3,7 L4,7 L4,11 L5,11 L5,12 L16,12 L16,13 L15,13 L15,14 L14,14 L14,15 L13,15 L13,16 L12,16 L12,17 L10,17 L10,18 L9,18 L9,19 L8,19 L8,25 L9,25 L9,29 L10,29 L10,33 L9,33 L9,32 L8,32 L8,31 L7,31 L7,30 L6,30 L6,29 L4,29 L4,28 L3,28 L3,26 L0,26 L0,27 L-1,27 L-1,28 L-2,28 L-2,29 L-3,29 L-3,30 L-4,30 L-4,31 L-6,31 L-6,33 L-8,33 L-8,31 L-7,31 L-7,27 L-6,27 L-6,22 L-5,22 L-5,20 L-6,20 L-6,19 L-7,19 L-7,18 L-8,18 L-8,17 L-9,17 L-9,16 L-11,16 L-11,15 L-12,15 L-12,14 L-13,14 L-13,12 L-2,12 L-2,7 L-1,7 L-1,4 L0,4 Z " fill="#EDEFF2" transform="translate(66,51)"/>
<path d="M0,0 L2,0 L2,4 L3,4 L3,8 L4,8 L4,12 L5,12 L5,13 L15,13 L15,15 L13,15 L13,16 L12,16 L12,17 L11,17 L11,18 L10,18 L10,19 L9,19 L9,20 L7,20 L7,24 L8,24 L8,25 L9,25 L9,30 L10,30 L10,32 L11,32 L11,34 L9,34 L9,33 L8,33 L8,32 L7,32 L7,31 L6,31 L6,30 L5,30 L5,29 L4,29 L4,28 L3,28 L3,27 L-1,27 L-1,28 L-2,28 L-2,29 L-3,29 L-3,30 L-4,30 L-4,31 L-5,31 L-5,32 L-6,32 L-6,33 L-7,33 L-7,34 L-8,34 L-8,31 L-7,31 L-7,27 L-6,27 L-6,23 L-5,23 L-5,21 L-6,21 L-6,20 L-7,20 L-7,19 L-8,19 L-8,18 L-9,18 L-9,17 L-10,17 L-10,16 L-11,16 L-11,15 L-13,15 L-13,14 L-14,14 L-14,12 L-2,12 L-2,8 L-1,8 L-1,5 L0,5 Z " fill="#E9EBF0" transform="translate(301,289)"/>
<path d="M0,0 L2,0 L2,3 L3,3 L3,6 L4,6 L4,12 L16,12 L16,14 L14,14 L14,15 L13,15 L13,16 L12,16 L12,17 L11,17 L11,18 L10,18 L10,19 L8,19 L8,25 L9,25 L9,27 L10,27 L10,31 L11,31 L11,33 L9,33 L9,32 L8,32 L8,31 L7,31 L7,30 L6,30 L6,29 L4,29 L4,28 L3,28 L3,26 L0,26 L0,27 L-1,27 L-1,28 L-2,28 L-2,29 L-3,29 L-3,30 L-4,30 L-4,31 L-5,31 L-5,32 L-6,32 L-6,33 L-8,33 L-8,31 L-7,31 L-7,27 L-6,27 L-6,23 L-5,23 L-5,20 L-6,20 L-6,19 L-7,19 L-7,18 L-8,18 L-8,17 L-9,17 L-9,16 L-11,16 L-11,15 L-12,15 L-12,14 L-13,14 L-13,12 L-2,12 L-2,8 L0,8 Z " fill="#E9EBEF" transform="translate(200,119)"/>
<path d="M0,0 L2,0 L2,5 L3,5 L3,7 L4,7 L4,12 L15,12 L15,14 L14,14 L14,15 L12,15 L12,16 L11,16 L11,17 L10,17 L10,18 L9,18 L9,19 L8,19 L8,20 L7,20 L7,23 L8,23 L8,27 L9,27 L9,31 L10,31 L10,33 L8,33 L8,32 L7,32 L7,31 L6,31 L6,30 L5,30 L5,29 L4,29 L4,28 L3,28 L3,27 L2,27 L2,26 L0,26 L0,27 L-1,27 L-1,28 L-2,28 L-2,29 L-4,29 L-4,30 L-5,30 L-5,31 L-6,31 L-6,32 L-7,32 L-7,33 L-8,33 L-8,27 L-7,27 L-7,24 L-6,24 L-6,19 L-7,19 L-7,18 L-8,18 L-8,17 L-10,17 L-10,16 L-11,16 L-11,15 L-12,15 L-12,14 L-14,14 L-14,12 L-3,12 L-3,11 L-2,11 L-2,7 L-1,7 L-1,4 L0,4 Z " fill="#EAECF0" transform="translate(100,85)"/>
<path d="M0,0 L1,0 L1,3 L2,3 L2,6 L3,6 L3,8 L4,8 L4,12 L15,12 L15,14 L13,14 L13,15 L12,15 L12,16 L11,16 L11,17 L9,17 L9,18 L8,18 L8,19 L7,19 L7,23 L8,23 L8,27 L9,27 L9,31 L10,31 L10,33 L8,33 L8,32 L7,32 L7,31 L6,31 L6,30 L5,30 L5,29 L3,29 L3,28 L2,28 L2,26 L-1,26 L-1,27 L-2,27 L-2,28 L-3,28 L-3,29 L-4,29 L-4,30 L-5,30 L-5,31 L-7,31 L-7,33 L-9,33 L-9,31 L-8,31 L-8,28 L-7,28 L-7,26 L-6,26 L-6,20 L-7,20 L-7,19 L-8,19 L-8,18 L-9,18 L-9,17 L-10,17 L-10,16 L-11,16 L-11,15 L-12,15 L-12,14 L-14,14 L-14,12 L-3,12 L-3,8 L-2,8 L-2,4 L-1,4 L-1,2 L0,2 Z " fill="#E9EBF0" transform="translate(134,51)"/>
<path d="M0,0 L2,0 L2,5 L3,5 L3,7 L4,7 L4,12 L15,12 L15,14 L13,14 L13,15 L12,15 L12,16 L11,16 L11,17 L10,17 L10,18 L9,18 L9,19 L7,19 L7,23 L8,23 L8,26 L9,26 L9,31 L10,31 L10,33 L9,33 L9,32 L8,32 L8,31 L6,31 L6,30 L5,30 L5,29 L4,29 L4,28 L3,28 L3,27 L2,27 L2,26 L-1,26 L-1,27 L-2,27 L-2,28 L-3,28 L-3,29 L-4,29 L-4,30 L-5,30 L-5,31 L-6,31 L-6,32 L-7,32 L-7,33 L-8,33 L-8,27 L-7,27 L-7,23 L-6,23 L-6,19 L-7,19 L-7,18 L-8,18 L-8,17 L-9,17 L-9,16 L-11,16 L-11,15 L-12,15 L-12,14 L-13,14 L-13,12 L-3,12 L-3,8 L-2,8 L-2,5 L-1,5 L-1,2 L0,2 Z " fill="#E9EBF0" transform="translate(100,17)"/>
<path d="M0,0 L1,0 L1,3 L2,3 L2,4 L3,4 L3,7 L4,7 L4,11 L15,11 L15,13 L14,13 L14,14 L13,14 L13,15 L11,15 L11,16 L10,16 L10,17 L9,17 L9,18 L8,18 L8,19 L7,19 L7,23 L8,23 L8,26 L9,26 L9,30 L10,30 L10,33 L8,33 L8,31 L7,31 L7,30 L5,30 L5,29 L4,29 L4,28 L3,28 L3,27 L2,27 L2,26 L-1,26 L-1,27 L-2,27 L-2,28 L-3,28 L-3,29 L-5,29 L-5,30 L-6,30 L-6,31 L-7,31 L-7,32 L-8,32 L-8,26 L-7,26 L-7,22 L-6,22 L-6,19 L-7,19 L-7,18 L-8,18 L-8,17 L-9,17 L-9,16 L-11,16 L-11,15 L-12,15 L-12,14 L-13,14 L-13,13 L-14,13 L-14,12 L-3,12 L-3,9 L-2,9 L-2,7 L-1,7 L-1,4 L0,4 Z " fill="#ECEEF1" transform="translate(268,256)"/>
<path d="M0,0 L2,0 L2,4 L3,4 L3,7 L4,7 L4,11 L5,11 L5,12 L16,12 L16,13 L15,13 L15,14 L14,14 L14,15 L13,15 L13,16 L12,16 L12,17 L10,17 L10,18 L9,18 L9,19 L8,19 L8,25 L9,25 L9,29 L10,29 L10,33 L9,33 L9,32 L8,32 L8,31 L7,31 L7,30 L5,30 L5,29 L4,29 L4,28 L3,28 L3,27 L2,27 L2,26 L0,26 L0,27 L-1,27 L-1,28 L-2,28 L-2,29 L-3,29 L-3,30 L-5,30 L-5,31 L-6,31 L-6,33 L-8,33 L-8,31 L-7,31 L-7,26 L-6,26 L-6,23 L-5,23 L-5,20 L-6,20 L-6,19 L-7,19 L-7,18 L-8,18 L-8,17 L-9,17 L-9,16 L-11,16 L-11,15 L-12,15 L-12,14 L-13,14 L-13,12 L-2,12 L-2,7 L-1,7 L-1,4 L0,4 Z " fill="#EDEFF2" transform="translate(368,85)"/>
<path d="M0,0 L1,0 L1,4 L2,4 L2,9 L3,9 L3,11 L4,11 L4,12 L15,12 L15,14 L14,14 L14,15 L13,15 L13,16 L11,16 L11,17 L10,17 L10,18 L9,18 L9,19 L8,19 L8,20 L7,20 L7,24 L8,24 L8,27 L9,27 L9,33 L8,33 L8,32 L7,32 L7,31 L5,31 L5,30 L4,30 L4,29 L3,29 L3,28 L2,28 L2,27 L-1,27 L-1,28 L-3,28 L-3,29 L-4,29 L-4,30 L-5,30 L-5,31 L-6,31 L-6,32 L-7,32 L-7,33 L-8,33 L-8,34 L-9,34 L-9,31 L-8,31 L-8,28 L-7,28 L-7,25 L-6,25 L-6,20 L-7,20 L-7,19 L-8,19 L-8,18 L-10,18 L-10,17 L-11,17 L-11,16 L-12,16 L-12,15 L-13,15 L-13,14 L-14,14 L-14,13 L-3,13 L-3,8 L-2,8 L-2,4 L-1,4 L-1,1 L0,1 Z " fill="#EDEFF2" transform="translate(134,255)"/>
<path d="M0,0 L2,0 L2,4 L3,4 L3,8 L4,8 L4,12 L15,12 L15,14 L14,14 L14,15 L13,15 L13,16 L12,16 L12,17 L10,17 L10,18 L9,18 L9,19 L8,19 L8,20 L7,20 L7,23 L8,23 L8,27 L9,27 L9,31 L10,31 L10,33 L8,33 L8,32 L7,32 L7,31 L6,31 L6,30 L5,30 L5,29 L4,29 L4,28 L3,28 L3,27 L2,27 L2,26 L0,26 L0,27 L-1,27 L-1,28 L-2,28 L-2,29 L-4,29 L-4,30 L-5,30 L-5,31 L-6,31 L-6,32 L-7,32 L-7,33 L-8,33 L-8,28 L-7,28 L-7,26 L-6,26 L-6,23 L-5,23 L-5,19 L-8,19 L-8,18 L-9,18 L-9,17 L-10,17 L-10,16 L-11,16 L-11,15 L-12,15 L-12,14 L-14,14 L-14,12 L-3,12 L-3,11 L-2,11 L-2,7 L-1,7 L-1,4 L0,4 Z " fill="#EBEDF1" transform="translate(167,153)"/>
<path d="M0,0 L2,0 L2,4 L3,4 L3,7 L4,7 L4,12 L5,12 L5,13 L15,13 L15,15 L13,15 L13,16 L12,16 L12,17 L11,17 L11,18 L10,18 L10,19 L9,19 L9,20 L8,20 L8,24 L9,24 L9,28 L10,28 L10,32 L11,32 L11,34 L9,34 L9,33 L8,33 L8,32 L7,32 L7,31 L6,31 L6,30 L5,30 L5,29 L4,29 L4,28 L3,28 L3,27 L2,27 L2,26 L0,26 L0,28 L-2,28 L-2,29 L-3,29 L-3,30 L-4,30 L-4,31 L-5,31 L-5,32 L-6,32 L-6,33 L-7,33 L-7,34 L-8,34 L-8,31 L-7,31 L-7,27 L-6,27 L-6,23 L-5,23 L-5,21 L-6,21 L-6,20 L-7,20 L-7,19 L-8,19 L-8,18 L-9,18 L-9,17 L-10,17 L-10,16 L-12,16 L-12,15 L-13,15 L-13,13 L-2,13 L-2,8 L-1,8 L-1,4 L0,4 Z " fill="#EDEFF2" transform="translate(368,289)"/>
<path d="M0,0 L2,0 L2,4 L3,4 L3,7 L4,7 L4,11 L5,11 L5,12 L16,12 L16,14 L14,14 L14,15 L13,15 L13,16 L12,16 L12,17 L11,17 L11,18 L9,18 L9,19 L8,19 L8,20 L7,20 L7,23 L8,23 L8,28 L9,28 L9,31 L10,31 L10,33 L9,33 L9,32 L8,32 L8,31 L6,31 L6,30 L5,30 L5,29 L4,29 L4,28 L3,28 L3,27 L2,27 L2,26 L0,26 L0,27 L-1,27 L-1,28 L-2,28 L-2,29 L-3,29 L-3,30 L-4,30 L-4,31 L-5,31 L-5,32 L-6,32 L-6,33 L-8,33 L-8,31 L-7,31 L-7,27 L-6,27 L-6,23 L-5,23 L-5,20 L-6,20 L-6,19 L-7,19 L-7,18 L-9,18 L-9,17 L-10,17 L-10,16 L-11,16 L-11,15 L-12,15 L-12,14 L-13,14 L-13,12 L-2,12 L-2,7 L-1,7 L-1,4 L0,4 Z " fill="#EEF0F3" transform="translate(368,153)"/>
<path d="M0,0 L2,0 L2,4 L3,4 L3,7 L4,7 L4,11 L5,11 L5,12 L15,12 L15,14 L14,14 L14,15 L13,15 L13,16 L12,16 L12,17 L11,17 L11,18 L9,18 L9,19 L8,19 L8,20 L7,20 L7,23 L8,23 L8,26 L9,26 L9,30 L10,30 L10,33 L9,33 L9,32 L8,32 L8,31 L6,31 L6,30 L5,30 L5,29 L4,29 L4,28 L3,28 L3,27 L2,27 L2,26 L0,26 L0,27 L-1,27 L-1,28 L-2,28 L-2,29 L-3,29 L-3,30 L-4,30 L-4,31 L-6,31 L-6,33 L-8,33 L-8,31 L-7,31 L-7,27 L-6,27 L-6,23 L-5,23 L-5,20 L-6,20 L-6,19 L-8,19 L-8,18 L-9,18 L-9,17 L-10,17 L-10,16 L-11,16 L-11,15 L-12,15 L-12,14 L-13,14 L-13,12 L-2,12 L-2,8 L-1,8 L-1,4 L0,4 Z " fill="#ECEEF1" transform="translate(301,153)"/>
<path d="M0,0 L2,0 L2,4 L3,4 L3,7 L4,7 L4,12 L15,12 L15,14 L14,14 L14,15 L13,15 L13,16 L11,16 L11,17 L10,17 L10,18 L9,18 L9,19 L8,19 L8,20 L7,20 L7,23 L8,23 L8,27 L9,27 L9,31 L10,31 L10,33 L8,33 L8,32 L7,32 L7,31 L6,31 L6,30 L5,30 L5,29 L4,29 L4,28 L3,28 L3,27 L2,27 L2,26 L0,26 L0,27 L-1,27 L-1,28 L-2,28 L-2,29 L-3,29 L-3,30 L-5,30 L-5,31 L-6,31 L-6,32 L-7,32 L-7,33 L-8,33 L-8,31 L-7,31 L-7,28 L-6,28 L-6,20 L-7,20 L-7,19 L-8,19 L-8,18 L-9,18 L-9,17 L-10,17 L-10,16 L-11,16 L-11,15 L-12,15 L-12,14 L-14,14 L-14,12 L-3,12 L-3,11 L-2,11 L-2,9 L-1,9 L-1,4 L0,4 Z " fill="#EBEDF1" transform="translate(100,153)"/>
<path d="M0,0 L2,0 L2,4 L3,4 L3,8 L4,8 L4,13 L15,13 L15,14 L14,14 L14,15 L13,15 L13,16 L12,16 L12,17 L11,17 L11,18 L9,18 L9,19 L8,19 L8,20 L7,20 L7,24 L8,24 L8,27 L9,27 L9,31 L10,31 L10,34 L9,34 L9,33 L8,33 L8,32 L7,32 L7,31 L6,31 L6,30 L5,30 L5,29 L3,29 L3,28 L2,28 L2,27 L-1,27 L-1,28 L-2,28 L-2,29 L-3,29 L-3,30 L-4,30 L-4,31 L-6,31 L-6,33 L-7,33 L-7,34 L-9,34 L-9,31 L-8,31 L-8,28 L-7,28 L-7,24 L-6,24 L-6,20 L-7,20 L-7,19 L-8,19 L-8,18 L-10,18 L-10,17 L-11,17 L-11,16 L-12,16 L-12,15 L-13,15 L-13,13 L-2,13 L-2,7 L-1,7 L-1,4 L0,4 Z " fill="#EBECF0" transform="translate(33,289)"/>
<path d="M0,0 L2,0 L2,4 L3,4 L3,8 L4,8 L4,11 L5,11 L5,12 L15,12 L15,14 L14,14 L14,15 L13,15 L13,16 L11,16 L11,17 L10,17 L10,18 L9,18 L9,19 L8,19 L8,20 L7,20 L7,24 L8,24 L8,26 L9,26 L9,28 L10,28 L10,32 L8,32 L8,31 L6,31 L6,30 L5,30 L5,29 L4,29 L4,28 L3,28 L3,27 L2,27 L2,26 L0,26 L0,27 L-1,27 L-1,28 L-2,28 L-2,29 L-4,29 L-4,30 L-5,30 L-5,31 L-6,31 L-6,32 L-7,32 L-7,33 L-8,33 L-8,28 L-7,28 L-7,26 L-6,26 L-6,23 L-5,23 L-5,20 L-6,20 L-6,19 L-7,19 L-7,18 L-9,18 L-9,17 L-10,17 L-10,16 L-11,16 L-11,15 L-12,15 L-12,14 L-13,14 L-13,12 L-3,12 L-3,11 L-2,11 L-2,8 L-1,8 L-1,4 L0,4 Z " fill="#EBEDF1" transform="translate(234,85)"/>
<path d="M0,0 L2,0 L2,4 L3,4 L3,7 L4,7 L4,12 L5,12 L5,13 L15,13 L15,14 L14,14 L14,15 L13,15 L13,16 L12,16 L12,17 L11,17 L11,18 L10,18 L10,19 L8,19 L8,20 L7,20 L7,24 L8,24 L8,27 L9,27 L9,31 L10,31 L10,34 L9,34 L9,33 L8,33 L8,32 L7,32 L7,31 L6,31 L6,30 L5,30 L5,29 L3,29 L3,28 L2,28 L2,27 L-1,27 L-1,28 L-2,28 L-2,29 L-3,29 L-3,30 L-4,30 L-4,31 L-5,31 L-5,32 L-6,32 L-6,33 L-7,33 L-7,34 L-9,34 L-9,32 L-8,32 L-8,30 L-7,30 L-7,28 L-6,28 L-6,20 L-7,20 L-7,19 L-8,19 L-8,18 L-9,18 L-9,17 L-10,17 L-10,16 L-11,16 L-11,15 L-13,15 L-13,13 L-3,13 L-3,9 L-2,9 L-2,7 L-1,7 L-1,4 L0,4 Z " fill="#EBEDF1" transform="translate(100,289)"/>
<path d="M0,0 L2,0 L2,4 L3,4 L3,7 L4,7 L4,11 L5,11 L5,12 L15,12 L15,14 L14,14 L14,15 L13,15 L13,16 L11,16 L11,17 L10,17 L10,18 L9,18 L9,19 L8,19 L8,20 L7,20 L7,23 L8,23 L8,26 L9,26 L9,28 L10,28 L10,33 L9,33 L9,32 L8,32 L8,31 L6,31 L6,30 L5,30 L5,29 L4,29 L4,28 L3,28 L3,27 L2,27 L2,26 L0,26 L0,27 L-1,27 L-1,28 L-2,28 L-2,29 L-3,29 L-3,30 L-5,30 L-5,31 L-6,31 L-6,32 L-7,32 L-7,33 L-8,33 L-8,31 L-7,31 L-7,26 L-6,26 L-6,23 L-5,23 L-5,20 L-6,20 L-6,19 L-7,19 L-7,18 L-8,18 L-8,17 L-9,17 L-9,16 L-11,16 L-11,15 L-12,15 L-12,14 L-13,14 L-13,12 L-3,12 L-3,11 L-2,11 L-2,8 L-1,8 L-1,4 L0,4 Z " fill="#ECEEF1" transform="translate(301,85)"/>
<path d="M0,0 L2,0 L2,3 L3,3 L3,7 L4,7 L4,11 L5,11 L5,12 L15,12 L15,14 L14,14 L14,15 L12,15 L12,16 L11,16 L11,17 L10,17 L10,18 L9,18 L9,19 L8,19 L8,20 L7,20 L7,24 L8,24 L8,26 L9,26 L9,28 L10,28 L10,33 L9,33 L9,32 L8,32 L8,31 L7,31 L7,30 L5,30 L5,29 L4,29 L4,28 L3,28 L3,27 L2,27 L2,26 L0,26 L0,27 L-1,27 L-1,28 L-3,28 L-3,29 L-4,29 L-4,30 L-5,30 L-5,31 L-6,31 L-6,32 L-7,32 L-7,33 L-8,33 L-8,28 L-7,28 L-7,26 L-6,26 L-6,22 L-5,22 L-5,20 L-6,20 L-6,19 L-7,19 L-7,18 L-8,18 L-8,17 L-9,17 L-9,16 L-11,16 L-11,15 L-12,15 L-12,14 L-13,14 L-13,12 L-3,12 L-3,11 L-2,11 L-2,8 L-1,8 L-1,4 L0,4 Z " fill="#ECEDF1" transform="translate(301,17)"/>
<path d="M0,0 L1,0 L1,3 L2,3 L2,7 L3,7 L3,8 L4,8 L4,11 L16,11 L16,13 L14,13 L14,14 L13,14 L13,15 L11,15 L11,16 L10,16 L10,17 L9,17 L9,18 L8,18 L8,19 L7,19 L7,23 L8,23 L8,27 L9,27 L9,30 L10,30 L10,33 L9,33 L9,32 L8,32 L8,31 L7,31 L7,30 L5,30 L5,29 L4,29 L4,28 L3,28 L3,27 L2,27 L2,26 L-1,26 L-1,27 L-2,27 L-2,28 L-3,28 L-3,29 L-5,29 L-5,30 L-6,30 L-6,31 L-7,31 L-7,33 L-9,33 L-9,30 L-8,30 L-8,28 L-7,28 L-7,24 L-6,24 L-6,19 L-7,19 L-7,18 L-8,18 L-8,17 L-9,17 L-9,16 L-11,16 L-11,15 L-12,15 L-12,14 L-13,14 L-13,12 L-3,12 L-3,10 L-2,10 L-2,8 L-1,8 L-1,3 L0,3 Z " fill="#EAECF0" transform="translate(335,256)"/>
<path d="M0,0 L2,0 L2,5 L3,5 L3,8 L4,8 L4,12 L15,12 L15,14 L14,14 L14,15 L13,15 L13,16 L11,16 L11,17 L10,17 L10,18 L9,18 L9,19 L8,19 L8,20 L7,20 L7,23 L8,23 L8,26 L9,26 L9,31 L10,31 L10,33 L9,33 L9,32 L8,32 L8,31 L6,31 L6,30 L5,30 L5,29 L4,29 L4,28 L3,28 L3,27 L2,27 L2,26 L0,26 L0,27 L-1,27 L-1,28 L-2,28 L-2,29 L-4,29 L-4,30 L-5,30 L-5,31 L-6,31 L-6,32 L-7,32 L-7,33 L-8,33 L-8,29 L-7,29 L-7,26 L-6,26 L-6,23 L-5,23 L-5,20 L-6,20 L-6,19 L-7,19 L-7,18 L-9,18 L-9,17 L-10,17 L-10,16 L-11,16 L-11,15 L-12,15 L-12,14 L-14,14 L-14,12 L-3,12 L-3,11 L-2,11 L-2,8 L-1,8 L-1,4 L0,4 Z " fill="#ECEEF2" transform="translate(167,85)"/>
<path d="M0,0 L2,0 L2,3 L3,3 L3,7 L4,7 L4,11 L5,11 L5,12 L16,12 L16,13 L15,13 L15,14 L14,14 L14,15 L13,15 L13,16 L11,16 L11,17 L10,17 L10,18 L9,18 L9,19 L8,19 L8,23 L9,23 L9,31 L10,31 L10,33 L9,33 L9,32 L8,32 L8,31 L7,31 L7,30 L6,30 L6,29 L4,29 L4,28 L3,28 L3,26 L0,26 L0,27 L-1,27 L-1,28 L-2,28 L-2,29 L-4,29 L-4,30 L-5,30 L-5,31 L-6,31 L-6,32 L-7,32 L-7,33 L-8,33 L-8,31 L-7,31 L-7,27 L-6,27 L-6,23 L-5,23 L-5,20 L-6,20 L-6,19 L-7,19 L-7,18 L-8,18 L-8,17 L-9,17 L-9,16 L-11,16 L-11,15 L-12,15 L-12,14 L-13,14 L-13,12 L-2,12 L-2,7 L-1,7 L-1,5 L0,5 Z " fill="#EEF0F3" transform="translate(368,17)"/>
<path d="M0,0 L2,0 L2,4 L3,4 L3,8 L4,8 L4,11 L5,11 L5,12 L15,12 L15,14 L13,14 L13,15 L12,15 L12,16 L11,16 L11,17 L10,17 L10,18 L9,18 L9,19 L8,19 L8,20 L7,20 L7,22 L8,22 L8,26 L9,26 L9,28 L10,28 L10,33 L9,33 L9,32 L8,32 L8,31 L7,31 L7,30 L5,30 L5,29 L4,29 L4,28 L3,28 L3,27 L2,27 L2,26 L0,26 L0,27 L-1,27 L-1,28 L-3,28 L-3,29 L-4,29 L-4,30 L-5,30 L-5,31 L-6,31 L-6,32 L-7,32 L-7,33 L-8,33 L-8,29 L-7,29 L-7,26 L-6,26 L-6,22 L-5,22 L-5,20 L-6,20 L-6,19 L-7,19 L-7,18 L-8,18 L-8,17 L-9,17 L-9,16 L-11,16 L-11,15 L-12,15 L-12,14 L-13,14 L-13,12 L-3,12 L-3,11 L-2,11 L-2,7 L-1,7 L-1,4 L0,4 Z " fill="#EDEEF2" transform="translate(234,17)"/>
<path d="M0,0 L2,0 L2,3 L3,3 L3,8 L4,8 L4,12 L15,12 L15,14 L13,14 L13,15 L12,15 L12,16 L11,16 L11,17 L10,17 L10,18 L9,18 L9,19 L8,19 L8,20 L7,20 L7,22 L8,22 L8,26 L9,26 L9,28 L10,28 L10,32 L8,32 L8,31 L7,31 L7,30 L5,30 L5,29 L4,29 L4,28 L3,28 L3,27 L2,27 L2,26 L0,26 L0,27 L-2,27 L-2,28 L-3,28 L-3,29 L-4,29 L-4,30 L-5,30 L-5,31 L-6,31 L-6,32 L-7,32 L-7,33 L-8,33 L-8,29 L-7,29 L-7,26 L-6,26 L-6,22 L-5,22 L-5,20 L-6,20 L-6,19 L-7,19 L-7,18 L-8,18 L-8,17 L-9,17 L-9,16 L-11,16 L-11,15 L-12,15 L-12,14 L-13,14 L-13,12 L-3,12 L-3,11 L-2,11 L-2,7 L-1,7 L-1,4 L0,4 Z " fill="#EDEEF2" transform="translate(167,17)"/>
<path d="M0,0 L2,0 L2,4 L3,4 L3,7 L4,7 L4,13 L15,13 L15,14 L14,14 L14,15 L13,15 L13,16 L12,16 L12,17 L11,17 L11,18 L10,18 L10,19 L9,19 L9,20 L7,20 L7,24 L8,24 L8,26 L9,26 L9,31 L10,31 L10,34 L9,34 L9,33 L8,33 L8,32 L7,32 L7,31 L6,31 L6,30 L5,30 L5,29 L3,29 L3,28 L2,28 L2,27 L-1,27 L-1,28 L-2,28 L-2,29 L-3,29 L-3,30 L-4,30 L-4,31 L-5,31 L-5,32 L-6,32 L-6,33 L-8,33 L-8,31 L-7,31 L-7,30 L-6,30 L-6,24 L-5,24 L-5,20 L-7,20 L-7,19 L-8,19 L-8,18 L-9,18 L-9,17 L-10,17 L-10,16 L-12,16 L-12,15 L-13,15 L-13,13 L-3,13 L-3,12 L-2,12 L-2,8 L-1,8 L-1,4 L0,4 Z " fill="#EFF0F3" transform="translate(234,289)"/>
<path d="M0,0 L2,0 L2,4 L3,4 L3,8 L4,8 L4,13 L15,13 L15,14 L14,14 L14,15 L13,15 L13,16 L12,16 L12,17 L11,17 L11,18 L10,18 L10,19 L8,19 L8,20 L7,20 L7,24 L8,24 L8,29 L9,29 L9,31 L10,31 L10,34 L9,34 L9,33 L8,33 L8,32 L7,32 L7,31 L6,31 L6,30 L5,30 L5,29 L3,29 L3,28 L2,28 L2,27 L-1,27 L-1,28 L-2,28 L-2,29 L-3,29 L-3,30 L-4,30 L-4,31 L-5,31 L-5,32 L-6,32 L-6,33 L-8,33 L-8,31 L-7,31 L-7,26 L-6,26 L-6,24 L-5,24 L-5,20 L-7,20 L-7,19 L-8,19 L-8,18 L-9,18 L-9,17 L-10,17 L-10,16 L-12,16 L-12,15 L-13,15 L-13,13 L-3,13 L-3,12 L-2,12 L-2,8 L-1,8 L-1,5 L0,5 Z " fill="#EFF1F4" transform="translate(167,289)"/>
<path d="M0,0 L12,0 L12,3 L11,3 L11,4 L10,4 L10,6 L11,6 L11,7 L10,7 L10,8 L9,8 L9,9 L8,9 L8,10 L7,10 L7,9 L5,9 L5,11 L6,11 L6,14 L7,14 L7,18 L8,18 L8,22 L7,22 L7,20 L6,20 L6,19 L5,19 L5,17 L4,17 L4,12 L3,12 L3,8 L4,8 L4,7 L6,7 L6,6 L7,6 L7,5 L8,5 L8,4 L9,4 L9,3 L10,3 L10,2 L11,2 L11,1 L0,1 Z " fill="#283662" transform="translate(171,301)"/>
<path d="M0,0 L12,0 L12,2 L11,2 L11,4 L12,4 L12,5 L11,5 L11,6 L10,6 L10,7 L9,7 L9,9 L8,9 L8,10 L7,10 L7,11 L6,11 L6,12 L5,12 L5,15 L6,15 L6,16 L5,16 L5,19 L4,19 L4,15 L3,15 L3,12 L2,12 L2,9 L3,9 L3,8 L4,8 L4,7 L6,7 L6,6 L7,6 L7,5 L8,5 L8,4 L9,4 L9,3 L10,3 L10,1 L0,1 Z " fill="#283863" transform="translate(306,164)"/>
<path d="M0,0 L1,0 L1,3 L13,3 L13,6 L14,6 L14,7 L12,7 L12,9 L11,9 L11,10 L10,10 L10,11 L9,11 L9,12 L8,12 L8,13 L7,13 L7,14 L6,14 L6,12 L5,12 L5,17 L4,17 L4,11 L6,11 L6,10 L7,10 L7,9 L8,9 L8,8 L9,8 L9,7 L10,7 L10,6 L12,6 L12,4 L0,4 Z " fill="#303F69" transform="translate(204,127)"/>
<path d="M0,0 L3,0 L3,2 L2,2 L2,3 L1,3 L1,4 L0,4 L0,5 L-1,5 L-1,6 L-2,6 L-2,7 L-3,7 L-3,9 L-2,9 L-2,12 L-1,12 L-1,16 L0,16 L0,19 L-1,19 L-1,17 L-2,17 L-2,16 L-3,16 L-3,11 L-4,11 L-4,8 L-5,8 L-5,4 L-3,4 L-3,3 L-2,3 L-2,2 L-1,2 L-1,1 L0,1 Z " fill="#172655" transform="translate(347,66)"/>
<path d="M0,0 L3,0 L3,2 L2,2 L2,3 L1,3 L1,4 L0,4 L0,5 L-1,5 L-1,6 L-2,6 L-2,7 L-3,7 L-3,12 L-2,12 L-2,14 L-3,14 L-3,17 L-4,17 L-4,12 L-5,12 L-5,9 L-6,9 L-6,5 L-4,5 L-4,4 L-3,4 L-3,3 L-2,3 L-2,2 L-1,2 L-1,1 L0,1 Z " fill="#243561" transform="translate(113,31)"/>
<path d="M0,0 L2,0 L2,3 L3,3 L3,5 L4,5 L4,8 L5,8 L5,12 L16,12 L16,14 L15,14 L15,13 L4,13 L4,9 L3,9 L3,6 L1,6 L1,7 L0,7 L0,8 L-1,8 L-1,4 L0,4 Z " fill="#9DA4B8" transform="translate(133,187)"/>
<path d="M0,0 L1,0 L1,1 L12,1 L12,3 L13,3 L13,5 L12,5 L12,6 L11,6 L11,8 L10,8 L10,9 L9,9 L9,10 L7,10 L7,9 L6,9 L6,7 L7,7 L7,6 L8,6 L8,5 L9,5 L9,4 L10,4 L10,3 L11,3 L11,2 L0,2 Z " fill="#3E4D74" transform="translate(238,300)"/>
<path d="M0,0 L2,0 L2,1 L3,1 L3,2 L4,2 L4,3 L6,3 L6,4 L7,4 L7,5 L8,5 L8,9 L7,9 L7,13 L6,13 L6,16 L5,16 L5,18 L4,18 L4,19 L3,19 L3,17 L4,17 L4,14 L5,14 L5,10 L6,10 L6,6 L5,6 L5,5 L4,5 L4,4 L3,4 L3,3 L2,3 L2,2 L0,2 Z " fill="#0C1A4D" transform="translate(19,304)"/>
<path d="M0,0 L3,0 L3,1 L4,1 L4,2 L5,2 L5,3 L6,3 L6,4 L8,4 L8,7 L7,7 L7,10 L6,10 L6,15 L5,15 L5,16 L4,16 L4,18 L3,18 L3,15 L4,15 L4,11 L5,11 L5,8 L6,8 L6,5 L5,5 L5,4 L4,4 L4,3 L2,3 L2,2 L1,2 L1,1 L0,1 Z " fill="#101D4F" transform="translate(53,271)"/>
<path d="M0,0 L3,0 L3,1 L2,1 L2,2 L1,2 L1,3 L0,3 L0,4 L-1,4 L-1,5 L-3,5 L-3,6 L-4,6 L-4,9 L-3,9 L-3,13 L-4,13 L-4,12 L-5,12 L-5,9 L-6,9 L-6,5 L-5,5 L-5,4 L-4,4 L-4,3 L-3,3 L-3,2 L-2,2 L-2,1 L0,1 Z " fill="#182454" transform="translate(214,270)"/>
<path d="M0,0 L1,0 L1,7 L-12,7 L-12,5 L-1,5 L-1,2 L0,2 Z " fill="#0F2152" transform="translate(30,89)"/>
<path d="M0,0 L3,0 L3,1 L2,1 L2,3 L1,3 L1,4 L-1,4 L-1,5 L-2,5 L-2,6 L-3,6 L-3,8 L-2,8 L-2,13 L-3,13 L-3,12 L-4,12 L-4,8 L-5,8 L-5,5 L-4,5 L-4,4 L-3,4 L-3,3 L-2,3 L-2,2 L-1,2 L-1,1 L0,1 Z " fill="#162453" transform="translate(213,202)"/>
<path d="M0,0 L2,0 L2,1 L3,1 L3,2 L5,2 L5,3 L6,3 L6,4 L7,4 L7,5 L8,5 L8,6 L9,6 L9,9 L8,9 L8,13 L7,13 L7,14 L6,14 L6,10 L7,10 L7,7 L6,7 L6,6 L5,6 L5,5 L4,5 L4,4 L3,4 L3,3 L2,3 L2,2 L0,2 Z " fill="#112253" transform="translate(253,133)"/>
<path d="M0,0 L11,0 L11,1 L13,1 L13,2 L2,2 L2,3 L3,3 L3,4 L0,4 L0,3 L-1,3 L-1,1 L0,1 Z " fill="#425379" transform="translate(118,266)"/>
<path d="M0,0 L3,0 L3,1 L4,1 L4,2 L5,2 L5,3 L6,3 L6,4 L8,4 L8,5 L9,5 L9,7 L10,7 L10,8 L11,8 L11,9 L9,9 L9,8 L8,8 L8,7 L7,7 L7,6 L5,6 L5,5 L4,5 L4,4 L3,4 L3,3 L2,3 L2,2 L1,2 L1,3 L0,3 L0,4 L-2,4 L-2,3 L-1,3 L-1,2 L0,2 Z " fill="#112252" transform="translate(66,214)"/>
<path d="M0,0 L2,0 L2,1 L3,1 L3,2 L4,2 L4,3 L5,3 L5,6 L4,6 L4,10 L3,10 L3,14 L2,14 L2,16 L1,16 L1,17 L0,17 L0,15 L1,15 L1,11 L2,11 L2,8 L3,8 L3,3 L1,3 L1,2 L0,2 Z " fill="#091A4C" transform="translate(22,102)"/>
<path d="M0,0 L3,0 L3,1 L2,1 L2,2 L1,2 L1,3 L0,3 L0,4 L-1,4 L-1,5 L-2,5 L-2,6 L-4,6 L-4,7 L-3,7 L-3,8 L-4,8 L-4,11 L-5,11 L-5,8 L-6,8 L-6,5 L-5,5 L-5,4 L-4,4 L-4,3 L-3,3 L-3,2 L-2,2 L-2,1 L0,1 Z " fill="#293864" transform="translate(314,100)"/>
<path d="M0,0 L1,0 L1,3 L2,3 L2,5 L12,5 L12,7 L0,7 Z " fill="#0E1A4C" transform="translate(305,21)"/>
<path d="M0,0 L3,0 L3,1 L4,1 L4,2 L5,2 L5,4 L4,4 L4,3 L1,3 L1,4 L-1,4 L-1,5 L-2,5 L-2,6 L-3,6 L-3,7 L-5,7 L-5,8 L-6,8 L-6,6 L-5,6 L-5,5 L-4,5 L-4,4 L-3,4 L-3,3 L-2,3 L-2,2 L-1,2 L-1,1 L0,1 Z " fill="#152253" transform="translate(99,316)"/>
<path d="M0,0 L12,0 L12,3 L11,3 L11,4 L10,4 L10,6 L9,6 L9,7 L8,7 L8,8 L4,8 L4,7 L5,7 L5,6 L7,6 L7,5 L8,5 L8,4 L9,4 L9,3 L10,3 L10,2 L11,2 L11,1 L0,1 Z " fill="#4A567C" transform="translate(37,301)"/>
<path d="M0,0 L2,0 L2,1 L3,1 L3,2 L5,2 L5,3 L6,3 L6,4 L7,4 L7,5 L8,5 L8,6 L9,6 L9,7 L10,7 L10,8 L11,8 L11,9 L9,9 L9,8 L7,8 L7,7 L6,7 L6,6 L5,6 L5,5 L4,5 L4,4 L3,4 L3,3 L2,3 L2,2 L0,2 L0,3 L-1,3 L-1,4 L-3,4 L-3,3 L-2,3 L-2,2 L-1,2 L-1,1 L0,1 Z " fill="#102353" transform="translate(335,146)"/>
<path d="M0,0 L2,0 L2,1 L3,1 L3,2 L5,2 L5,3 L6,3 L6,4 L7,4 L7,5 L8,5 L8,10 L7,10 L7,11 L6,11 L6,6 L5,6 L5,5 L4,5 L4,4 L2,4 L2,3 L1,3 L1,2 L0,2 Z " fill="#182655" transform="translate(321,270)"/>
<path d="M0,0 L2,0 L2,1 L3,1 L3,2 L4,2 L4,3 L5,3 L5,4 L7,4 L7,5 L8,5 L8,7 L9,7 L9,8 L10,8 L10,9 L8,9 L8,8 L7,8 L7,7 L6,7 L6,6 L5,6 L5,5 L4,5 L4,4 L3,4 L3,3 L2,3 L2,2 L0,2 L0,3 L-1,3 L-1,4 L-2,4 L-2,5 L-4,5 L-4,4 L-3,4 L-3,3 L-2,3 L-2,2 L-1,2 L-1,1 L0,1 Z " fill="#101F50" transform="translate(134,214)"/>
<path d="M0,0 L1,0 L1,3 L0,3 L0,4 L-1,4 L-1,5 L-2,5 L-2,6 L-4,6 L-4,7 L-5,7 L-5,8 L-7,8 L-7,7 L-8,7 L-8,4 L-7,4 L-7,6 L-6,6 L-6,5 L-5,5 L-5,4 L-4,4 L-4,3 L-3,3 L-3,2 L-2,2 L-2,1 L0,1 Z " fill="#263662" transform="translate(233,44)"/>
<path d="M0,0 L12,0 L12,3 L11,3 L11,4 L10,4 L10,6 L9,6 L9,7 L8,7 L8,8 L6,8 L6,6 L7,6 L7,5 L8,5 L8,4 L9,4 L9,3 L10,3 L10,2 L11,2 L11,1 L0,1 Z " fill="#4C587D" transform="translate(171,301)"/>
<path d="M0,0 L1,0 L1,1 L0,1 Z M-5,1 L-3,1 L-3,2 L-4,2 L-4,3 L-2,3 L-2,2 L-1,2 L-1,1 L0,1 L0,3 L-1,3 L-1,4 L-2,4 L-2,5 L-3,5 L-3,6 L-4,6 L-4,7 L-5,7 L-5,9 L-6,9 L-6,6 L-7,6 L-7,3 L-6,3 L-6,2 L-5,2 Z " fill="#293965" transform="translate(248,238)"/>
<path d="M0,0 L2,0 L2,2 L3,2 L3,5 L4,5 L4,9 L3,9 L3,6 L2,6 L2,5 L1,5 L1,6 L0,6 L0,8 L-1,8 L-1,11 L-2,11 L-2,7 L-1,7 L-1,4 L0,4 Z " fill="#AEB5C5" transform="translate(66,119)"/>
<path d="M0,0 L2,0 L2,1 L1,1 L1,2 L0,2 L0,3 L-1,3 L-1,4 L-2,4 L-2,6 L-1,6 L-1,10 L0,10 L0,11 L-1,11 L-1,15 L-2,15 L-2,10 L-3,10 L-3,7 L-4,7 L-4,4 L-3,4 L-3,3 L-2,3 L-2,2 L-1,2 L-1,1 L0,1 Z " fill="#2C3864" transform="translate(178,101)"/>
<path d="M0,0 L2,0 L2,1 L3,1 L3,2 L5,2 L5,3 L6,3 L6,4 L7,4 L7,5 L8,5 L8,6 L9,6 L9,7 L10,7 L10,8 L11,8 L11,9 L8,9 L8,8 L7,8 L7,7 L6,7 L6,6 L5,6 L5,5 L4,5 L4,4 L3,4 L3,3 L2,3 L2,2 L-1,2 L-1,1 L0,1 Z " fill="#112354" transform="translate(201,78)"/>
<path d="M0,0 L2,0 L2,1 L3,1 L3,2 L5,2 L5,3 L6,3 L6,4 L7,4 L7,5 L8,5 L8,6 L9,6 L9,8 L7,8 L7,7 L6,7 L6,6 L5,6 L5,5 L4,5 L4,4 L3,4 L3,3 L2,3 L2,2 L1,2 L1,3 L0,3 L0,4 L-2,4 L-2,3 L-1,3 L-1,2 L0,2 Z " fill="#122051" transform="translate(234,316)"/>
<path d="M0,0 L1,0 L1,1 L2,1 L2,2 L3,2 L3,3 L4,3 L4,4 L6,4 L6,5 L7,5 L7,6 L8,6 L8,7 L9,7 L9,8 L10,8 L10,9 L11,9 L11,11 L9,11 L9,9 L7,9 L7,8 L6,8 L6,7 L5,7 L5,6 L4,6 L4,5 L3,5 L3,4 L2,4 L2,3 L1,3 L1,2 L0,2 Z " fill="#132151" transform="translate(352,301)"/>
<path d="M0,0 L3,0 L3,1 L4,1 L4,2 L6,2 L6,3 L7,3 L7,4 L8,4 L8,5 L9,5 L9,8 L8,8 L8,10 L7,10 L7,6 L6,6 L6,5 L5,5 L5,4 L3,4 L3,3 L2,3 L2,2 L1,2 L1,1 L0,1 Z " fill="#142152" transform="translate(253,270)"/>
<path d="M0,0 L2,0 L2,1 L1,1 L1,2 L0,2 L0,3 L-1,3 L-1,4 L-2,4 L-2,5 L-4,5 L-4,6 L-5,6 L-5,7 L-7,7 L-7,8 L-9,8 L-9,7 L-8,7 L-8,6 L-7,6 L-7,5 L-6,5 L-6,4 L-5,4 L-5,3 L-4,3 L-4,2 L-3,2 L-3,1 L0,1 Z " fill="#102152" transform="translate(234,249)"/>
<path d="M0,0 L3,0 L3,1 L4,1 L4,2 L5,2 L5,3 L6,3 L6,4 L7,4 L7,8 L6,8 L6,12 L5,12 L5,14 L4,14 L4,10 L5,10 L5,7 L6,7 L6,5 L5,5 L5,4 L3,4 L3,3 L2,3 L2,2 L1,2 L1,1 L0,1 Z " fill="#0B194C" transform="translate(221,237)"/>
<path d="M0,0 L2,0 L2,1 L1,1 L1,2 L0,2 L0,3 L-1,3 L-1,4 L0,4 L0,5 L-1,5 L-1,6 L-2,6 L-2,8 L-3,8 L-3,11 L-4,11 L-4,9 L-5,9 L-5,5 L-4,5 L-4,4 L-3,4 L-3,3 L-2,3 L-2,2 L-1,2 L-1,1 L0,1 Z " fill="#36446D" transform="translate(313,32)"/>
<path d="M0,0 L1,0 L1,2 L0,2 L0,4 L-1,4 L-1,5 L-2,5 L-2,7 L-3,7 L-3,8 L-4,8 L-4,9 L-5,9 L-5,10 L-6,10 L-6,11 L-9,11 L-9,8 L-5,8 L-5,7 L-4,7 L-4,6 L-3,6 L-3,4 L-2,4 L-2,3 L-1,3 L-1,1 L0,1 Z " fill="#122656" transform="translate(50,301)"/>
<path d="M0,0 L2,0 L2,1 L3,1 L3,2 L4,2 L4,3 L5,3 L5,4 L7,4 L7,5 L8,5 L8,6 L9,6 L9,8 L10,8 L10,9 L8,9 L8,8 L7,8 L7,7 L6,7 L6,6 L4,6 L4,4 L2,4 L2,3 L1,3 L1,2 L0,2 Z " fill="#132151" transform="translate(335,282)"/>
<path d="M0,0 L3,0 L3,1 L4,1 L4,2 L5,2 L5,3 L7,3 L7,4 L8,4 L8,5 L9,5 L9,9 L7,9 L7,6 L6,6 L6,5 L5,5 L5,4 L3,4 L3,3 L2,3 L2,2 L1,2 L1,1 L0,1 Z " fill="#172454" transform="translate(186,270)"/>
<path d="M0,0 L11,0 L11,2 L10,2 L10,3 L9,3 L9,4 L8,4 L8,2 L0,2 Z " fill="#B4BBCA" transform="translate(205,267)"/>
<path d="M0,0 L11,0 L11,2 L10,2 L10,3 L9,3 L9,4 L8,4 L8,2 L0,2 Z " fill="#B4BBCA" transform="translate(138,267)"/>
<path d="M0,0 L11,0 L11,2 L10,2 L10,3 L9,3 L9,4 L8,4 L8,2 L0,2 Z " fill="#B1B9C8" transform="translate(71,267)"/>
<path d="M0,0 L3,0 L3,6 L2,6 L2,5 L1,5 L1,6 L0,6 L0,8 L-1,8 L-1,11 L-2,11 L-2,7 L-1,7 L-1,4 L0,4 Z " fill="#B2B9C8" transform="translate(66,51)"/>
<path d="M0,0 L3,0 L3,1 L2,1 L2,2 L1,2 L1,3 L0,3 L0,7 L1,7 L1,12 L0,12 L0,10 L-1,10 L-1,6 L-2,6 L-2,2 L-1,2 L-1,1 L0,1 Z " fill="#0B184A" transform="translate(378,307)"/>
<path d="M0,0 L3,0 L3,2 L4,2 L4,3 L6,3 L6,4 L7,4 L7,5 L4,5 L4,4 L3,4 L3,3 L-1,3 L-1,4 L-2,4 L-2,5 L-3,5 L-3,6 L-5,6 L-5,5 L-4,5 L-4,4 L-3,4 L-3,3 L-2,3 L-2,2 L0,2 Z " fill="#2E3A66" transform="translate(200,213)"/>
<path d="M0,0 L2,0 L2,1 L3,1 L3,4 L4,4 L4,8 L3,8 L3,6 L2,6 L2,5 L1,5 L1,6 L0,6 L0,8 L-1,8 L-1,4 L0,4 Z " fill="#B2B9C8" transform="translate(267,51)"/>
<path d="M0,0 L2,0 L2,1 L1,1 L1,2 L0,2 L0,4 L1,4 L1,7 L-1,7 L-1,10 L-2,10 L-2,6 L-3,6 L-3,3 L-2,3 L-2,2 L-1,2 L-1,1 L0,1 Z " fill="#2C3A64" transform="translate(177,170)"/>
<path d="M0,0 L1,0 L1,1 L2,1 L2,2 L3,2 L3,3 L4,3 L4,4 L6,4 L6,5 L7,5 L7,6 L8,6 L8,7 L9,7 L9,8 L10,8 L10,10 L9,10 L9,9 L7,9 L7,8 L6,8 L6,7 L5,7 L5,6 L4,6 L4,5 L3,5 L3,4 L2,4 L2,3 L1,3 L1,2 L0,2 Z " fill="#0E1F50" transform="translate(17,165)"/>
<path d="M0,0 L3,0 L3,1 L4,1 L4,2 L5,2 L5,3 L6,3 L6,6 L5,6 L5,10 L3,10 L3,7 L4,7 L4,4 L3,4 L3,3 L2,3 L2,2 L1,2 L1,1 L0,1 Z " fill="#142354" transform="translate(189,136)"/>
<path d="M0,0 L1,0 L1,1 L2,1 L2,2 L4,2 L4,3 L5,3 L5,4 L6,4 L6,5 L7,5 L7,6 L9,6 L9,7 L10,7 L10,10 L9,10 L9,9 L8,9 L8,8 L7,8 L7,7 L6,7 L6,6 L5,6 L5,5 L3,5 L3,4 L2,4 L2,3 L1,3 L1,2 L0,2 Z " fill="#132455" transform="translate(218,97)"/>
<path d="M0,0 L2,0 L2,4 L3,4 L3,7 L4,7 L4,11 L3,11 L3,8 L2,8 L2,6 L0,6 L0,7 L-1,7 L-1,4 L0,4 Z " fill="#C6CCD7" transform="translate(33,85)"/>
<path d="M0,0 L3,0 L3,1 L4,1 L4,2 L5,2 L5,3 L6,3 L6,6 L5,6 L5,9 L4,9 L4,10 L3,10 L3,6 L4,6 L4,4 L3,4 L3,3 L2,3 L2,2 L1,2 L1,1 L0,1 Z " fill="#102152" transform="translate(189,68)"/>
<path d="M0,0 L3,0 L3,2 L2,2 L2,3 L1,3 L1,4 L0,4 L0,5 L-1,5 L-1,6 L-2,6 L-2,7 L-4,7 L-4,5 L-3,5 L-3,3 L-2,3 L-2,2 L-1,2 L-1,1 L0,1 Z " fill="#142757" transform="translate(280,66)"/>
<path d="M0,0 L2,0 L2,1 L1,1 L1,2 L0,2 L0,3 L-1,3 L-1,4 L-2,4 L-2,5 L-3,5 L-3,9 L-4,9 L-4,12 L-5,12 L-5,8 L-6,8 L-6,6 L-5,6 L-5,5 L-4,5 L-4,4 L-3,4 L-3,3 L-2,3 L-2,2 L-1,2 L-1,1 L0,1 Z " fill="#303C68" transform="translate(247,31)"/>
<path d="M0,0 L2,0 L2,3 L3,3 L3,7 L2,7 L2,5 L1,5 L1,6 L0,6 L0,9 L-1,9 L-1,11 L-2,11 L-2,7 L-1,7 L-1,5 L0,5 Z " fill="#D2D6DF" transform="translate(368,17)"/>
<path d="M0,0 L11,0 L11,2 L10,2 L10,3 L9,3 L9,2 L1,2 L1,1 L0,1 Z " fill="#B2B9C8" transform="translate(272,267)"/>
<path d="M0,0 L2,0 L2,1 L1,1 L1,5 L0,5 L0,9 L1,9 L1,13 L0,13 L0,10 L-1,10 L-1,5 L-2,5 L-2,2 L-1,2 L-1,1 L0,1 Z " fill="#4E597E" transform="translate(377,171)"/>
<path d="M0,0 L2,0 L2,1 L3,1 L3,2 L5,2 L5,3 L6,3 L6,4 L7,4 L7,5 L8,5 L8,7 L9,7 L9,8 L7,8 L7,7 L6,7 L6,6 L5,6 L5,5 L4,5 L4,4 L3,4 L3,3 L2,3 L2,2 L-1,2 L-1,1 L0,1 Z " fill="#152555" transform="translate(134,146)"/>
<path d="M0,0 L4,0 L4,1 L3,1 L3,2 L2,2 L2,3 L1,3 L1,4 L-1,4 L-1,5 L-5,5 L-5,2 L-4,2 L-4,4 L-3,4 L-3,3 L-2,3 L-2,2 L-1,2 L-1,1 L0,1 Z " fill="#293965" transform="translate(364,46)"/>
<path d="M0,0 L3,0 L3,1 L4,1 L4,2 L5,2 L5,3 L6,3 L6,4 L8,4 L8,6 L9,6 L9,7 L10,7 L10,8 L8,8 L8,7 L7,7 L7,6 L6,6 L6,5 L5,5 L5,4 L4,4 L4,3 L2,3 L2,2 L-1,2 L-1,1 L0,1 Z " fill="#112152" transform="translate(33,44)"/>
<path d="M0,0 L2,0 L2,4 L3,4 L3,7 L4,7 L4,9 L3,9 L3,8 L2,8 L2,5 L1,5 L1,6 L0,6 L0,8 L-1,8 L-1,4 L0,4 Z " fill="#C2C8D5" transform="translate(368,289)"/>
<path d="M0,0 L2,0 L2,6 L1,6 L1,7 L0,7 L0,9 L-1,9 L-1,12 L-2,12 L-2,8 L-1,8 L-1,5 L0,5 Z " fill="#B7BDCC" transform="translate(200,255)"/>
<path d="M0,0 L1,0 L1,4 L2,4 L2,7 L3,7 L3,10 L1,10 L1,9 L0,9 L0,8 L-1,8 L-1,7 L-2,7 L-2,6 L0,6 Z " fill="#A1A8BC" transform="translate(376,245)"/>
<path d="M0,0 L3,0 L3,1 L4,1 L4,2 L5,2 L5,3 L6,3 L6,4 L7,4 L7,5 L8,5 L8,6 L9,6 L9,7 L10,7 L10,8 L8,8 L8,7 L7,7 L7,6 L6,6 L6,5 L4,5 L4,4 L3,4 L3,3 L2,3 L2,2 L1,2 L1,1 L0,1 Z " fill="#0F1E50" transform="translate(369,249)"/>
<path d="M0,0 L3,0 L3,1 L4,1 L4,2 L5,2 L5,3 L6,3 L6,4 L7,4 L7,5 L8,5 L8,6 L9,6 L9,8 L7,8 L7,6 L6,6 L6,5 L4,5 L4,4 L3,4 L3,3 L2,3 L2,2 L1,2 L1,1 L0,1 Z " fill="#142051" transform="translate(287,236)"/>
<path d="M0,0 L2,0 L2,1 L1,1 L1,3 L2,3 L2,6 L0,6 L0,9 L-1,9 L-1,5 L-2,5 L-2,2 L-1,2 L-1,1 L0,1 Z " fill="#2C3964" transform="translate(176,239)"/>
<path d="M0,0 L2,0 L2,1 L3,1 L3,2 L4,2 L4,3 L6,3 L6,4 L7,4 L7,5 L8,5 L8,8 L7,8 L7,9 L6,9 L6,6 L5,6 L5,5 L4,5 L4,4 L3,4 L3,3 L2,3 L2,2 L0,2 Z " fill="#132152" transform="translate(120,202)"/>
<path d="M0,0 L2,0 L2,1 L3,1 L3,2 L4,2 L4,3 L2,3 L2,2 L0,2 L0,4 L-1,4 L-1,5 L-2,5 L-2,6 L-6,6 L-6,5 L-5,5 L-5,4 L-3,4 L-3,3 L-2,3 L-2,2 L-1,2 L-1,1 L0,1 Z " fill="#273461" transform="translate(234,179)"/>
<path d="M0,0 L2,0 L2,4 L3,4 L3,6 L2,6 L2,5 L1,5 L1,6 L0,6 L0,8 L-1,8 L-1,11 L-2,11 L-2,7 L-1,7 L-1,4 L0,4 Z " fill="#C4CAD6" transform="translate(368,153)"/>
<path d="M0,0 L2,0 L2,4 L3,4 L3,6 L2,6 L2,5 L1,5 L1,6 L0,6 L0,8 L-1,8 L-1,11 L-2,11 L-2,7 L-1,7 L-1,4 L0,4 Z " fill="#C8CED8" transform="translate(368,85)"/>
<path d="M0,0 L2,0 L2,3 L3,3 L3,4 L4,4 L4,8 L3,8 L3,5 L1,5 L1,6 L0,6 L0,8 L-1,8 L-1,4 L0,4 Z " fill="#B3BAC9" transform="translate(200,51)"/>
<path d="M0,0 L2,0 L2,1 L3,1 L3,2 L4,2 L4,3 L5,3 L5,4 L6,4 L6,5 L7,5 L7,6 L8,6 L8,8 L7,8 L7,7 L6,7 L6,6 L4,6 L4,5 L3,5 L3,4 L2,4 L2,3 L1,3 L1,2 L0,2 Z " fill="#112052" transform="translate(371,318)"/>
<path d="M0,0 L2,0 L2,1 L3,1 L3,2 L5,2 L5,3 L6,3 L6,4 L7,4 L7,5 L8,5 L8,8 L7,8 L7,7 L6,7 L6,6 L5,6 L5,5 L4,5 L4,4 L3,4 L3,3 L2,3 L2,2 L0,2 Z " fill="#131F51" transform="translate(167,316)"/>
<path d="M0,0 L2,0 L2,1 L3,1 L3,2 L1,2 L1,3 L2,3 L2,4 L1,4 L1,5 L0,5 L0,6 L-1,6 L-1,5 L-4,5 L-4,4 L-3,4 L-3,3 L-2,3 L-2,2 L-1,2 L-1,1 L0,1 Z " fill="#2A3965" transform="translate(368,247)"/>
<path d="M0,0 L3,0 L3,1 L1,1 L1,4 L0,4 L0,5 L-1,5 L-1,6 L-2,6 L-2,7 L-4,7 L-4,6 L-5,6 L-5,5 L-4,5 L-4,4 L-3,4 L-3,3 L-1,3 L-1,2 L0,2 Z " fill="#2D3C67" transform="translate(334,213)"/>
<path d="M0,0 L12,0 L12,2 L13,2 L13,4 L12,4 L12,5 L11,5 L11,4 L9,4 L9,3 L11,3 L11,1 L0,1 Z " fill="#2E3A65" transform="translate(205,198)"/>
<path d="M0,0 L2,0 L2,3 L3,3 L3,6 L1,6 L1,7 L0,7 L0,8 L-1,8 L-1,4 L0,4 Z " fill="#C2C8D4" transform="translate(133,187)"/>
<path d="M0,0 L2,0 L2,1 L3,1 L3,4 L4,4 L4,8 L3,8 L3,6 L2,6 L2,5 L1,5 L1,6 L0,6 Z " fill="#B5BBCA" transform="translate(267,119)"/>
<path d="M0,0 L1,0 L1,6 L0,6 L0,8 L-1,8 L-1,10 L-2,10 L-2,11 L-3,11 L-3,9 L-2,9 L-2,5 L-1,5 L-1,1 L0,1 Z " fill="#112454" transform="translate(159,108)"/>
<path d="M0,0 L1,0 L1,1 L2,1 L2,2 L4,2 L4,3 L5,3 L5,4 L6,4 L6,5 L7,5 L7,6 L9,6 L9,7 L7,7 L7,8 L6,8 L6,7 L5,7 L5,6 L4,6 L4,5 L3,5 L3,4 L2,4 L2,3 L1,3 L1,2 L0,2 Z " fill="#152656" transform="translate(151,97)"/>
<path d="M0,0 L2,0 L2,1 L3,1 L3,2 L5,2 L5,3 L6,3 L6,4 L7,4 L7,5 L8,5 L8,7 L9,7 L9,8 L7,8 L7,7 L6,7 L6,6 L5,6 L5,5 L4,5 L4,4 L3,4 L3,3 L2,3 L2,2 L1,2 L1,1 L0,1 Z " fill="#112252" transform="translate(134,78)"/>
<path d="M0,0 L1,0 L1,1 L2,1 L2,2 L3,2 L3,3 L4,3 L4,4 L5,4 L5,6 L4,6 L4,10 L3,10 L3,7 L2,7 L2,4 L1,4 L1,3 L0,3 Z " fill="#2D3A65" transform="translate(157,33)"/>
<path d="M0,0 L2,0 L2,1 L4,1 L4,5 L3,5 L3,7 L1,7 L1,2 L0,2 Z " fill="#2B3662" transform="translate(158,308)"/>
<path d="M0,0 L1,0 L1,3 L2,3 L2,4 L12,4 L12,5 L2,5 L2,6 L0,6 Z " fill="#06174A" transform="translate(339,261)"/>
<path d="M0,0 L1,0 L1,2 L0,2 L0,3 L-1,3 L-1,4 L-2,4 L-2,5 L-3,5 L-3,6 L-4,6 L-4,7 L-5,7 L-5,8 L-7,8 L-7,7 L-6,7 L-6,5 L-5,5 L-5,4 L-4,4 L-4,3 L-3,3 L-3,2 L-1,2 L-1,1 L0,1 Z " fill="#152655" transform="translate(385,165)"/>
<path d="M0,0 L2,0 L2,1 L3,1 L3,2 L4,2 L4,4 L3,4 L3,9 L1,9 L1,5 L2,5 L2,3 L1,3 L1,2 L0,2 Z " fill="#152555" transform="translate(57,69)"/>
<path d="M0,0 L3,0 L3,1 L4,1 L4,2 L5,2 L5,3 L6,3 L6,4 L7,4 L7,5 L8,5 L8,7 L7,7 L7,6 L6,6 L6,5 L4,5 L4,4 L3,4 L3,3 L2,3 L2,2 L1,2 L1,1 L0,1 Z " fill="#112152" transform="translate(304,319)"/>
<path d="M0,0 L1,0 L1,3 L2,3 L2,7 L3,7 L3,10 L1,10 L1,8 L-1,8 L-1,7 L-2,7 L-2,6 L0,6 L0,7 L1,7 L1,4 L0,4 Z " fill="#9CA4B8" transform="translate(74,279)"/>
<path d="M0,0 L2,0 L2,1 L1,1 L1,2 L0,2 L0,3 L-1,3 L-1,5 L-2,5 L-2,9 L-3,9 L-3,8 L-4,8 L-4,4 L-3,4 L-3,3 L-2,3 L-2,2 L-1,2 L-1,1 L0,1 Z " fill="#293561" transform="translate(279,271)"/>
<path d="M0,0 L1,0 L1,2 L2,2 L2,6 L3,6 L3,8 L1,8 L1,7 L0,7 L0,6 L-1,6 L-1,5 L-2,5 L-2,4 L0,4 Z " fill="#AEB5C6" transform="translate(309,247)"/>
<path d="M0,0 L2,0 L2,1 L3,1 L3,2 L4,2 L4,3 L5,3 L5,4 L6,4 L6,5 L7,5 L7,6 L8,6 L8,7 L6,7 L6,6 L5,6 L5,5 L3,5 L3,4 L2,4 L2,3 L1,3 L1,2 L0,2 Z " fill="#112152" transform="translate(237,250)"/>
<path d="M0,0 L3,0 L3,1 L4,1 L4,2 L5,2 L5,3 L6,3 L6,4 L7,4 L7,5 L8,5 L8,6 L9,6 L9,7 L7,7 L7,6 L6,6 L6,5 L5,5 L5,4 L3,4 L3,3 L2,3 L2,2 L1,2 L1,1 L0,1 Z " fill="#0F1F51" transform="translate(169,182)"/>
<path d="M0,0 L1,0 L1,2 L2,2 L2,3 L3,3 L3,6 L4,6 L4,8 L3,8 L3,11 L2,11 L2,7 L1,7 L1,3 L0,3 Z " fill="#2A3A66" transform="translate(107,173)"/>
<path d="M0,0 L1,0 L1,2 L2,2 L2,3 L3,3 L3,6 L4,6 L4,8 L3,8 L3,11 L2,11 L2,7 L1,7 L1,3 L0,3 Z " fill="#243461" transform="translate(40,173)"/>
<path d="M0,0 L3,0 L3,1 L4,1 L4,2 L5,2 L5,3 L6,3 L6,4 L7,4 L7,5 L8,5 L8,7 L7,7 L7,6 L6,6 L6,5 L4,5 L4,4 L3,4 L3,3 L2,3 L2,2 L1,2 L1,1 L0,1 Z " fill="#101F50" transform="translate(86,168)"/>
<path d="M0,0 L3,0 L3,1 L4,1 L4,2 L5,2 L5,3 L6,3 L6,4 L7,4 L7,5 L8,5 L8,7 L7,7 L7,6 L6,6 L6,5 L4,5 L4,4 L3,4 L3,3 L2,3 L2,2 L1,2 L1,1 L0,1 Z " fill="#0F1E4F" transform="translate(153,168)"/>
<path d="M0,0 L1,0 L1,6 L0,6 L0,8 L1,8 L1,9 L-1,9 L-1,8 L-2,8 L-2,5 L-1,5 L-1,1 L0,1 Z " fill="#2A3A65" transform="translate(293,110)"/>
<path d="M0,0 L1,0 L1,2 L2,2 L2,3 L4,3 L4,4 L5,4 L5,5 L7,5 L7,8 L6,8 L6,7 L4,7 L4,6 L3,6 L3,5 L2,5 L2,4 L1,4 L1,3 L0,3 Z " fill="#142657" transform="translate(352,96)"/>
<path d="M0,0 L1,0 L1,3 L2,3 L2,6 L3,6 L3,11 L4,11 L4,13 L2,13 L2,12 L1,12 L1,11 L2,11 L2,7 L1,7 L1,4 L0,4 Z " fill="#B2B9C8" transform="translate(341,71)"/>
<path d="M0,0 L1,0 L1,3 L0,3 L0,7 L-1,7 L-1,11 L-2,11 L-2,7 L-3,7 L-3,6 L-2,6 L-2,2 L0,2 Z " fill="#2F3F69" transform="translate(362,37)"/>
<path d="M0,0 L1,0 L1,2 L2,2 L2,6 L3,6 L3,10 L2,10 L2,8 L1,8 L1,7 L0,7 L0,2 L-1,2 L-1,1 L0,1 Z " fill="#142555" transform="translate(41,37)"/>
<path d="M0,0 L1,0 L1,4 L0,4 L0,7 L2,7 L2,8 L1,8 L1,9 L0,9 L0,10 L-1,10 L-1,11 L-2,11 L-2,8 L-1,8 L-1,3 L0,3 Z " fill="#BAC1CF" transform="translate(60,278)"/>
<path d="M0,0 L3,0 L3,1 L5,1 L5,2 L4,2 L4,3 L3,3 L3,4 L2,4 L2,6 L1,6 L1,3 L0,3 Z M5,0 L6,0 L6,1 L5,1 Z " fill="#293863" transform="translate(308,241)"/>
<path d="M0,0 L2,0 L2,4 L3,4 L3,6 L2,6 L2,5 L1,5 L1,6 L0,6 L0,8 L-1,8 L-1,4 L0,4 Z " fill="#CACFDA" transform="translate(368,221)"/>
<path d="M0,0 L2,0 L2,4 L1,4 L1,5 L0,5 L0,7 L-1,7 L-1,10 L-2,10 L-2,6 L-1,6 L-1,3 L0,3 Z " fill="#B4BBCA" transform="translate(167,221)"/>
<path d="M0,0 L2,0 L2,4 L3,4 L3,8 L2,8 L2,5 L1,5 L1,6 L-1,6 L-1,4 L0,4 Z " fill="#C5CAD6" transform="translate(33,221)"/>
<path d="M0,0 L2,0 L2,1 L1,1 L1,2 L0,2 L0,3 L-1,3 L-1,5 L-2,5 L-2,6 L-5,6 L-5,3 L-2,3 L-2,2 L-1,2 L-1,1 L0,1 Z " fill="#112455" transform="translate(199,216)"/>
<path d="M0,0 L3,0 L3,1 L4,1 L4,2 L5,2 L5,3 L6,3 L6,4 L7,4 L7,5 L8,5 L8,7 L7,7 L7,6 L6,6 L6,5 L5,5 L5,4 L3,4 L3,3 L2,3 L2,2 L1,2 L1,1 L0,1 Z " fill="#0D1B4D" transform="translate(220,168)"/>
<path d="M0,0 L1,0 L1,4 L0,4 L0,7 L2,7 L2,8 L1,8 L1,9 L0,9 L0,10 L-1,10 L-1,11 L-2,11 L-2,8 L-1,8 L-1,3 L0,3 Z " fill="#B1B9C8" transform="translate(127,142)"/>
<path d="M0,0 L2,0 L2,1 L1,1 L1,2 L0,2 L0,5 L-2,5 L-2,6 L-3,6 L-3,7 L-4,7 L-4,6 L-5,6 L-5,5 L-4,5 L-4,4 L-3,4 L-3,3 L-2,3 L-2,2 L-1,2 L-1,1 L0,1 Z " fill="#263662" transform="translate(348,133)"/>
<path d="M0,0 L2,0 L2,1 L3,1 L3,2 L4,2 L4,3 L5,3 L5,4 L6,4 L6,5 L7,5 L7,6 L8,6 L8,7 L6,7 L6,6 L5,6 L5,5 L4,5 L4,4 L2,4 L2,3 L1,3 L1,2 L0,2 Z " fill="#0F2252" transform="translate(103,114)"/>
<path d="M0,0 L3,0 L3,1 L4,1 L4,2 L5,2 L5,3 L6,3 L6,7 L4,7 L4,3 L2,3 L2,2 L1,2 L1,1 L0,1 Z " fill="#142555" transform="translate(256,68)"/>
</svg>
