<svg width="524" height="524" xmlns="http://www.w3.org/2000/svg" xmlns:xlink="http://www.w3.org/1999/xlink" overflow="hidden"><defs><clipPath id="clip0"><rect x="1261" y="472" width="524" height="524"/></clipPath><clipPath id="clip1"><rect x="1357" y="567" width="331" height="331"/></clipPath><clipPath id="clip2"><rect x="1357" y="567" width="331" height="331"/></clipPath><clipPath id="clip3"><rect x="1357" y="567" width="331" height="331"/></clipPath></defs><g clip-path="url(#clip0)" transform="translate(-1261 -472)"><rect x="1263.5" y="474.5" width="519" height="519" stroke="#BFBFBF" stroke-width="4.58333" stroke-miterlimit="8" stroke-dasharray="18.3333 13.75" fill="none"/><g clip-path="url(#clip1)"><g clip-path="url(#clip2)"><g clip-path="url(#clip3)"><path d="M1646.51 609.25 1644.99 609.25C1641.53 609.344 1638.8 612.216 1638.88 615.678L1638.88 637.197C1638.8 640.658 1641.53 643.531 1644.99 643.625L1646.51 643.625C1649.97 643.531 1652.7 640.658 1652.63 637.197L1652.63 615.678C1652.7 612.216 1649.97 609.344 1646.51 609.25Z" fill="#D5B5FF" fill-opacity="0.6"/><path d="M1399.01 609.25 1397.49 609.25C1394.03 609.344 1391.3 612.216 1391.38 615.678L1391.38 637.197C1391.3 640.658 1394.03 643.531 1397.49 643.625L1399.01 643.625C1402.47 643.531 1405.2 640.658 1405.13 637.197L1405.13 615.678C1405.2 612.216 1402.47 609.344 1399.01 609.25Z" fill="#D5B5FF" fill-opacity="0.6"/><path d="M1656.06 619.562 1656.06 633.312C1659.86 633.312 1662.94 630.234 1662.94 626.437 1662.94 622.64 1659.86 619.562 1656.06 619.562Z" fill="#D5B5FF" fill-opacity="0.6"/><path d="M1387.94 633.312 1387.94 619.562C1384.14 619.562 1381.06 622.64 1381.06 626.437 1381.06 630.234 1384.14 633.312 1387.94 633.312Z" fill="#D5B5FF" fill-opacity="0.6"/><path d="M1629.32 598.937 1627.81 598.937C1624.13 599.335 1621.43 602.57 1621.69 606.259L1621.69 619.562 1422.31 619.562 1422.31 606.259C1422.57 602.57 1419.87 599.335 1416.19 598.937L1414.68 598.937C1411 599.335 1408.3 602.57 1408.56 606.259L1408.56 646.615C1408.3 650.305 1411 653.54 1414.68 653.937L1416.19 653.937C1419.87 653.54 1422.57 650.305 1422.31 646.615L1422.31 633.312 1439.5 633.312 1439.5 684.875C1439.52 689.77 1442.14 694.287 1446.38 696.734L1494.5 725.094 1494.5 758.678 1445.79 790.2C1441.87 792.732 1439.5 797.082 1439.5 801.75L1439.5 867.062 1467 867.062 1467 809.244 1494.5 791.437 1549.5 791.437 1577 809.244 1577 867.062 1604.5 867.062 1604.5 801.75C1604.5 797.082 1602.13 792.732 1598.21 790.2L1549.5 758.678 1549.5 725.094 1597.63 696.734C1601.86 694.287 1604.48 689.77 1604.5 684.875L1604.5 633.312 1621.69 633.312 1621.69 646.615C1621.43 650.305 1624.13 653.54 1627.81 653.937L1629.32 653.937C1633 653.54 1635.7 650.305 1635.44 646.615L1635.44 606.259C1635.7 602.57 1633 599.335 1629.32 598.937ZM1577 677.003 1534.41 702.062 1509.59 702.062 1467 677.003 1467 633.312 1577 633.312Z" fill="#D5B5FF" fill-opacity="0.6"/><path d="M1549.5 664.25C1549.5 679.438 1537.19 691.75 1522 691.75 1506.81 691.75 1494.5 679.438 1494.5 664.25 1494.5 649.062 1506.81 636.75 1522 636.75 1537.19 636.75 1549.5 649.062 1549.5 664.25Z" fill="#D5B5FF" fill-opacity="0.6"/></g></g></g></g></svg>