<svg width="525" height="524" xmlns="http://www.w3.org/2000/svg" xmlns:xlink="http://www.w3.org/1999/xlink" overflow="hidden"><defs><clipPath id="clip0"><rect x="528" y="472" width="525" height="524"/></clipPath><clipPath id="clip1"><rect x="624" y="567" width="331" height="331"/></clipPath><clipPath id="clip2"><rect x="624" y="567" width="331" height="331"/></clipPath><clipPath id="clip3"><rect x="624" y="567" width="331" height="331"/></clipPath></defs><g clip-path="url(#clip0)" transform="translate(-528 -472)"><rect x="530.5" y="474.5" width="520" height="519" stroke="#BFBFBF" stroke-width="4.58333" stroke-miterlimit="8" stroke-dasharray="18.3333 13.75" fill="none"/><g clip-path="url(#clip1)"><g clip-path="url(#clip2)"><g clip-path="url(#clip3)"><path d="M693.75 737.469 693.75 777.687C693.75 796.594 736.719 815.5 790 815.5 843.281 815.5 886.25 796.594 886.25 777.687L886.25 737.469 790 771.5 693.75 737.469Z" fill="#56BAFF" fill-opacity="0.6"/><path d="M790 756.719 939.875 704.125 790 650.5 640.125 704.125 659.375 711 659.375 774.25C659.375 778.031 662.469 781.125 666.25 781.125 670.031 781.125 673.125 778.031 673.125 774.25L673.125 715.812 790 756.719Z" fill="#56BAFF" fill-opacity="0.6"/></g></g></g></g></svg>