<svg xmlns="http://www.w3.org/2000/svg" xmlns:xlink="http://www.w3.org/1999/xlink" viewBox="0 0 180 180"><defs><style>.cls-1{fill:url(#linear-gradient);}.cls-2{fill:url(#linear-gradient-2);}.cls-3{fill:url(#linear-gradient-3);}.cls-4{fill:#006dff;}.cls-5{fill:#0081ff;}</style><linearGradient id="linear-gradient" x1="90" y1="53.32" x2="90" y2="11.12" gradientUnits="userSpaceOnUse"><stop offset="0.01" stop-color="#0060ff"/><stop offset="0.06" stop-color="#0063ff"/><stop offset="0.33" stop-color="#0074ff"/><stop offset="0.62" stop-color="#007eff"/><stop offset="1" stop-color="#0081ff"/></linearGradient><linearGradient id="linear-gradient-2" x1="90" y1="62.07" x2="90" y2="42.21" xlink:href="#linear-gradient"/><linearGradient id="linear-gradient-3" x1="86.11" y1="105.35" x2="94.27" y2="46.55" xlink:href="#linear-gradient"/></defs><g id="Layer_11" data-name="Layer 11"><polygon class="cls-1" points="147.81 11.12 147.81 39.69 136.07 39.03 136.07 53.32 127.83 53.32 127.83 39.27 94.12 37.52 94.12 53.32 85.87 53.32 85.87 37.52 52.16 39.27 52.16 53.32 43.91 53.32 43.91 39.03 32.19 39.69 32.19 11.12 49.28 11.12 49.28 24.51 65.03 24.51 65.03 11.12 82.12 11.12 82.12 24.51 97.88 24.51 97.88 11.12 114.97 11.12 114.97 24.51 130.72 24.51 130.72 11.12 147.81 11.12"/><polygon class="cls-2" points="140.53 43.74 147.81 44.15 147.81 62.07 32.19 62.07 32.19 44.15 39.45 43.74 39.45 57.78 56.62 57.78 56.62 43.51 81.41 42.22 81.41 57.78 98.58 57.78 98.58 42.22 123.37 43.51 123.37 57.78 140.53 57.78 140.53 43.74"/><path class="cls-3" d="M165.32,45.11v64.43l-24.3-1V87.65a19.54,19.54,0,1,0-39.07,0v19.19l-23.9-1V87.65a19.55,19.55,0,0,0-39.09,0v16.51l-24.28-1v-58l17.5-1,7.27-.4v14H56.62V43.51l24.79-1.3V57.78H98.58V42.21l24.79,1.3V57.78h17.16v-14l7.29.4Z"/><path class="cls-4" d="M72.65,88.45V116.3H44.36V88.45a14.15,14.15,0,1,1,28.29,0Z"/><path class="cls-4" d="M135.64,88.45V116.3H107.33V88.45a14.16,14.16,0,0,1,28.31,0Z"/><path class="cls-5" d="M126.36,148.27a2,2,0,0,1,1.3,3.51c-6.59,6.17-20.86,16.93-41.1,17.1-18.24.14-31.6-8.39-38.21-13.7a2,2,0,0,1,1.06-3.59Z"/></g></svg>