<!DOCTYPE svg PUBLIC "-//W3C//DTD SVG 1.1//EN" "http://www.w3.org/Graphics/SVG/1.1/DTD/svg11.dtd">
<!-- Uploaded to: SVG Repo, www.svgrepo.com, Transformed by: SVG Repo Mixer Tools -->
<svg height="800px" width="800px" version="1.1" id="Layer_1" xmlns="http://www.w3.org/2000/svg" xmlns:xlink="http://www.w3.org/1999/xlink" viewBox="0 0 512 512" xml:space="preserve" fill="#000000">
<g id="SVGRepo_bgCarrier" stroke-width="0"/>
<g id="SVGRepo_tracerCarrier" stroke-linecap="round" stroke-linejoin="round"/>
<g id="SVGRepo_iconCarrier"> <path style="fill:#e01b24;" d="M87.084,192c-0.456-5.272-0.688-10.6-0.688-16C86.404,78.8,162.34,0,256.004,0s169.6,78.8,169.6,176 c0,5.392-0.232,10.728-0.688,16h0.688c0,96.184-169.6,320-169.6,320s-169.6-223.288-169.6-320H87.084z M256.004,224 c36.392,1.024,66.744-27.608,67.84-64c-1.096-36.392-31.448-65.024-67.84-64c-36.392-1.024-66.744,27.608-67.84,64 C189.26,196.392,219.612,225.024,256.004,224z"/> </g>
</svg>